<?xml version="1.0" encoding="utf-8"?>
<!-- Generator: Adobe Illustrator 16.0.0, SVG Export Plug-In . SVG Version: 6.00 Build 0)  -->
<!DOCTYPE svg PUBLIC "-//W3C//DTD SVG 1.1//EN" "http://www.w3.org/Graphics/SVG/1.1/DTD/svg11.dtd">
<svg version="1.1" xmlns="http://www.w3.org/2000/svg" xmlns:xlink="http://www.w3.org/1999/xlink" x="0px" y="0px"
	 width="840.383px" height="594.267px" viewBox="0 0 840.383 594.267" enable-background="new 0 0 840.383 594.267"
	 xml:space="preserve">
<g id="Livello_1">
	<rect x="-902.954" width="840.383" height="594.267"/>
	<g>
		<g>
			<g>
				<polygon fill="#D0D2D3" points="-462.962,425.456 -567.526,425.456 -552.409,354.909 -478.079,354.909 				"/>
				<polygon fill="#BBBDBF" points="-469.53,394.798 -478.079,354.909 -552.409,354.909 -560.958,394.798 				"/>
				<path fill="#E6E6E7" d="M-441.052,433.587h-148.385c-7.873,0-9.084-10.42-9.084-10.42h166.555
					C-431.966,423.167-433.177,433.587-441.052,433.587z"/>
			</g>
			<path fill="#575756" d="M-318.993,340.796c0,9.572-7.756,17.328-17.328,17.328h-357.846c-9.57,0-17.326-7.756-17.326-17.328
				v-207.92c0-9.57,7.756-17.33,17.326-17.33h357.846c9.572,0,17.328,7.76,17.328,17.33V340.796z"/>
			<path fill="#E6E6E7" d="M-711.493,336.103v34.1c0,9.568,7.756,17.326,17.326,17.326h357.846c9.572,0,17.328-7.758,17.328-17.326
				v-34.1H-711.493z"/>
			<rect x="-698.829" y="131.915" fill="#A6ACA7" width="367.172" height="188.652"/>
			<circle fill="#929597" cx="-515.244" cy="360.907" r="12.54"/>
		</g>
		<g>
			<path fill="#575756" d="M-797.661,448.737c-4.77,0-8.633-3.865-8.633-8.635V266.276c0-4.766,3.863-8.631,8.633-8.631h116.254
				c4.77,0,8.633,3.865,8.633,8.631v173.826c0,4.77-3.863,8.635-8.633,8.635H-797.661z"/>
			<rect x="-797.194" y="276.237" fill="#A6ACA7" width="115.322" height="153.906"/>
			<path fill="#403F41" d="M-730.534,439.931c0,1.748-1.416,3.162-3.162,3.162h-9.943c-1.746,0-3.162-1.414-3.162-3.162l0,0
				c0-1.748,1.416-3.162,3.162-3.162h9.943C-731.95,436.769-730.534,438.183-730.534,439.931L-730.534,439.931z"/>
		</g>
		<path opacity="0.3" fill="#FFFFFF" d="M-685.649,448.733h4.242c4.77,0,8.635-3.863,8.635-8.631V266.276
			c0-4.768-3.865-8.631-8.635-8.631h-116.252c-1.062,0-2.076,0.199-3.016,0.551L-685.649,448.733z"/>
		<g>
			<path fill="#575756" d="M-777.415,476.278c0,4.221-3.42,7.639-7.637,7.639h-62.227c-4.221,0-7.637-3.418-7.637-7.639v-118.99
				c0-4.219,3.416-7.641,7.637-7.641h62.227c4.217,0,7.637,3.422,7.637,7.641V476.278z"/>
			<rect x="-850.144" y="366.526" fill="#A6ACA7" width="67.957" height="98.559"/>
			<path fill="#403F41" d="M-813.312,358.983c0,1.578-1.277,2.855-2.854,2.855s-2.855-1.277-2.855-2.855
				c0-1.574,1.279-2.852,2.855-2.852S-813.312,357.409-813.312,358.983z"/>
			<path fill="#403F41" d="M-808.083,474.595c0,1.736-1.408,3.143-3.143,3.143h-9.879c-1.736,0-3.143-1.406-3.143-3.143l0,0
				c0-1.736,1.406-3.141,3.143-3.141h9.879C-809.491,471.454-808.083,472.858-808.083,474.595L-808.083,474.595z"/>
		</g>
		<path opacity="0.3" fill="#FFFFFF" d="M-778.538,479.772c0.539-1.049,0.852-2.232,0.852-3.494v-118.99
			c0-4.219-3.42-7.641-7.639-7.641h-62.225c-3.053,0-5.676,1.795-6.898,4.379L-778.538,479.772z"/>
		<g>
			<path fill="#221F1F" d="M-558.831,250.64l-11.285,9.674l-25.904-33.428l25.904-33.426l11.285,9.887l-18.057,23.539
				L-558.831,250.64z"/>
			<path fill="#221F1F" d="M-496.702,176.907l-28.807,98.668h-9.459l28.807-98.668H-496.702z"/>
			<path fill="#221F1F" d="M-471.657,203.347l11.285-9.887l25.904,33.426l-25.904,33.428l-11.285-9.674l18.057-23.754
				L-471.657,203.347z"/>
		</g>
		<g opacity="0.3">
			<path fill="#FFFFFF" d="M-336.321,115.812H-584.71l164.195,271.98h84.193c9.572,0,17.328-7.754,17.328-17.326v-29.404v-4.693
				V133.142C-318.993,123.571-326.749,115.812-336.321,115.812z"/>
		</g>
		<g>
			<path fill="#575756" d="M-141.612,471.437v-178.84c0-8.521-6.906-15.432-15.43-15.432h-257.523
				c-8.523,0-15.432,6.91-15.432,15.432v178.84H-141.612z"/>
			<path fill="#BBBDBF" d="M-118.612,481.96h-334.383c-6.938,0-8.004-9.182-8.004-9.182h350.387
				C-110.612,472.778-111.677,481.96-118.612,481.96z"/>
			<rect x="-460.999" y="469.192" fill="#E6E6E7" width="350.387" height="5.15"/>
			<rect x="-319.614" y="469.192" fill="#BBBDBF" width="67.619" height="2.922"/>
			<rect x="-418.718" y="291.741" fill="#A6ACA7" width="265.828" height="167.99"/>
		</g>
		<path opacity="0.3" fill="#FFFFFF" d="M-141.517,468.569V292.597c0-8.521-6.904-15.432-15.426-15.432h-177.334l115.549,191.404
			H-141.517z"/>
	</g>
	<rect x="0.001" fill="#FFFFFF" width="840.383" height="594.267"/>
	<g>
		<g>
			<g>
				<polygon fill="#D0D2D3" points="439.993,425.456 335.429,425.456 350.546,354.909 424.876,354.909 				"/>
				<polygon fill="#BBBDBF" points="433.425,394.798 424.876,354.909 350.546,354.909 341.997,394.798 				"/>
				<path fill="#E6E6E7" d="M461.903,433.587H313.519c-7.873,0-9.084-10.42-9.084-10.42h166.555
					C470.989,423.167,469.778,433.587,461.903,433.587z"/>
			</g>
			<path fill="#575756" d="M583.962,340.796c0,9.572-7.756,17.328-17.328,17.328H208.788c-9.57,0-17.326-7.756-17.326-17.328
				v-207.92c0-9.57,7.756-17.33,17.326-17.33h357.846c9.572,0,17.328,7.76,17.328,17.33V340.796z"/>
			<path fill="#E6E6E7" d="M191.462,336.103v34.1c0,9.568,7.756,17.326,17.326,17.326h357.846c9.572,0,17.328-7.758,17.328-17.326
				v-34.1H191.462z"/>
			<rect x="204.126" y="131.915" fill="#A6ACA7" width="367.172" height="188.652"/>
			<circle fill="#929597" cx="387.711" cy="360.907" r="12.54"/>
		</g>
		<g>
			<path fill="#575756" d="M105.294,448.737c-4.77,0-8.633-3.865-8.633-8.635V266.276c0-4.766,3.863-8.631,8.633-8.631h116.254
				c4.77,0,8.633,3.865,8.633,8.631v173.826c0,4.77-3.863,8.635-8.633,8.635H105.294z"/>
			<rect x="105.761" y="276.237" fill="#A6ACA7" width="115.322" height="153.906"/>
			<path fill="#403F41" d="M172.421,439.931c0,1.748-1.416,3.162-3.162,3.162h-9.943c-1.746,0-3.162-1.414-3.162-3.162l0,0
				c0-1.748,1.416-3.162,3.162-3.162h9.943C171.005,436.769,172.421,438.183,172.421,439.931L172.421,439.931z"/>
		</g>
		<path opacity="0.3" fill="#FFFFFF" d="M217.306,448.733h4.242c4.77,0,8.635-3.863,8.635-8.631V266.276
			c0-4.768-3.865-8.631-8.635-8.631H105.296c-1.062,0-2.076,0.199-3.016,0.551L217.306,448.733z"/>
		<g>
			<path fill="#575756" d="M125.54,476.278c0,4.221-3.42,7.639-7.637,7.639H55.677c-4.221,0-7.637-3.418-7.637-7.639v-118.99
				c0-4.219,3.416-7.641,7.637-7.641h62.227c4.217,0,7.637,3.422,7.637,7.641V476.278z"/>
			<rect x="52.812" y="366.526" fill="#A6ACA7" width="67.957" height="98.559"/>
			<path fill="#403F41" d="M89.644,358.983c0,1.578-1.277,2.855-2.854,2.855s-2.855-1.277-2.855-2.855
				c0-1.574,1.279-2.852,2.855-2.852S89.644,357.409,89.644,358.983z"/>
			<path fill="#403F41" d="M94.872,474.595c0,1.736-1.408,3.143-3.143,3.143h-9.879c-1.736,0-3.143-1.406-3.143-3.143l0,0
				c0-1.736,1.406-3.141,3.143-3.141h9.879C93.464,471.454,94.872,472.858,94.872,474.595L94.872,474.595z"/>
		</g>
		<path opacity="0.3" fill="#FFFFFF" d="M124.417,479.772c0.539-1.049,0.852-2.232,0.852-3.494v-118.99
			c0-4.219-3.42-7.641-7.639-7.641H55.405c-3.053,0-5.676,1.795-6.898,4.379L124.417,479.772z"/>
		<g>
			<path fill="#221F1F" d="M344.124,250.64l-11.285,9.674l-25.904-33.428l25.904-33.426l11.285,9.887l-18.057,23.539L344.124,250.64
				z"/>
			<path fill="#221F1F" d="M406.253,176.907l-28.807,98.668h-9.459l28.807-98.668H406.253z"/>
			<path fill="#221F1F" d="M431.298,203.347l11.285-9.887l25.904,33.426l-25.904,33.428l-11.285-9.674l18.057-23.754
				L431.298,203.347z"/>
		</g>
		<g opacity="0.3">
			<path fill="#FFFFFF" d="M566.634,115.812H318.245l164.195,271.98h84.193c9.572,0,17.328-7.754,17.328-17.326v-29.404v-4.693
				V133.142C583.962,123.571,576.206,115.812,566.634,115.812z"/>
		</g>
		<g>
			<path fill="#575756" d="M761.343,471.437v-178.84c0-8.521-6.906-15.432-15.43-15.432H488.39c-8.523,0-15.432,6.91-15.432,15.432
				v178.84H761.343z"/>
			<path fill="#BBBDBF" d="M784.343,481.96H449.96c-6.938,0-8.004-9.182-8.004-9.182h350.387
				C792.343,472.778,791.278,481.96,784.343,481.96z"/>
			<rect x="441.956" y="469.192" fill="#E6E6E7" width="350.387" height="5.15"/>
			<rect x="583.341" y="469.192" fill="#BBBDBF" width="67.619" height="2.922"/>
			<rect x="484.237" y="291.741" fill="#A6ACA7" width="265.828" height="167.99"/>
		</g>
		<path opacity="0.3" fill="#FFFFFF" d="M761.438,468.569V292.597c0-8.521-6.904-15.432-15.426-15.432H568.679l115.549,191.404
			H761.438z"/>
	</g>
</g>
<g id="Livello_2">
</g>
</svg>
