<?xml version="1.0" encoding="utf-8"?>
<!-- Generator: Adobe Illustrator 16.0.0, SVG Export Plug-In . SVG Version: 6.00 Build 0)  -->
<!DOCTYPE svg PUBLIC "-//W3C//DTD SVG 1.1//EN" "http://www.w3.org/Graphics/SVG/1.1/DTD/svg11.dtd">
<svg version="1.1" id="Livello_2" xmlns="http://www.w3.org/2000/svg" xmlns:xlink="http://www.w3.org/1999/xlink" x="0px" y="0px"
	 width="841.891px" height="595.275px" viewBox="0 0 841.891 595.275" enable-background="new 0 0 841.891 595.275"
	 xml:space="preserve">
<rect x="-940.453" fill="#000100" width="841.888" height="595.275"/>
<g>
	<path fill="#DB8F67" d="M-502.721,271.122c0,0,16.904,55.053,18.428,69.658c1.521,14.603-1.508,70.455-1.508,70.455l-20.168,1.36
		l-25.458-134.16L-502.721,271.122z"/>
</g>
<path fill="#C5C5C5" d="M-512.719,377.024l25.781-3.223c0,0-6.256,16.021-6.469,28.348l-0.543,9.522l-12.451,1.149L-512.719,377.024
	z"/>
<g>
	<path fill="#DB8F67" d="M-532.697,149.547c0,0,0.244,50.471-2.367,55.263c-2.135,3.916-38.762,35.191-49.703,46.277
		c-1.057,1.656-1.668,2.615-1.668,2.615l-13.48-11.722c3.643-2.837,39.428-50.55,39.428-50.55l0.102-42.268
		C-560.386,149.161-548.876,130.752-532.697,149.547z"/>
</g>
<polygon fill="#353030" points="-560.478,179.768 -560.423,164.898 -556.933,164.898 -552.113,168.602 -549.546,173.64 
	-552.113,181.266 "/>
<g>
	<path fill="#E6B282" d="M-608.285,101.007c12.191-5.5,28.328,1.754,28.328,1.754l5.775,17.492l3.564-1.281
		c0,0,34.664,16.196,35.215,16.597c0.549,0.404-23.012,20.687-23.012,20.687s-23.406-9.252-26.225-10.447
		c-5.295,2.822-10.043,5.196-10.791,5.062c-1.811-0.324-8.949-11.635-8.949-11.635l-0.646-5.453c0,0-6.807,0.872-6.732,0.47
		c0.074-0.402,3.49-10.188,3.49-10.188s-0.754-1.591-1.213-2.502C-609.939,120.647-608.285,101.007-608.285,101.007z"/>
</g>
<g>
	<path fill="#3A373A" d="M-467.113,201.448c-1.15-0.07-11.641-1.79-25-4.77c-11.031-2.45-24.01-5.74-35.289-9.64
		c-4.41-1.51-8.561-3.12-12.23-4.81c-24.451-11.24-23.99-24.24-19.691-29.08c4.291-4.84,7.221-26.42,7.221-26.42
		s6.852-6.19,28.34-1.79c3.07,0.63,7.339,1.79,12.369,3.26c9.791,2.86,22.432,6.9,34.471,10.5c7.859,2.35,15.451,4.51,21.84,6.03
		c21.201,5.05,25.951,20.23,25.951,20.23C-421.404,187.838-464.654,201.578-467.113,201.448z"/>
</g>
<path fill="#7E312B" d="M-555.742,144.854c0,0,17.75,3.361,36.234,13.849l-8.119,28.335c0,0-34.691-0.876-34.012-31.4l-0.01-0.774
	C-561.648,154.864-557.537,151.915-555.742,144.854z"/>
<polyline fill="#50494A" points="-505.039,437.87 -549.263,431.9 -549.263,439.237 -504.641,441.303 -504.641,438.1 "/>
<g>
	<path fill="#525A73" d="M-544.968,426.375c1.473-2.435,6.322-0.528,8.441-0.771c2.115-0.243,17.381-4.357,17.381-4.357
		l14.705-10.248l15.268,25.998l-12.514,1.5l-45.81-6.134C-547.498,432.362-546.441,428.81-544.968,426.375z"/>
</g>
<path fill="#656A70" d="M-390.715,307.708c-56.912,0-103.047,46.137-103.047,103.051c0,56.911,46.135,103.048,103.047,103.048
	s103.051-46.137,103.051-103.048C-287.664,353.845-333.803,307.708-390.715,307.708z M-390.715,503.03
	c-50.961,0-92.271-41.312-92.271-92.271c0-50.964,41.311-92.274,92.271-92.274c50.963,0,92.273,41.311,92.273,92.274
	C-298.441,461.719-339.752,503.03-390.715,503.03z"/>
<path fill="#F5F4F5" d="M-390.715,318.484c-50.961,0-92.271,41.311-92.271,92.274c0,50.96,41.311,92.271,92.271,92.271
	c50.963,0,92.273-41.312,92.273-92.271C-298.441,359.795-339.752,318.484-390.715,318.484z M-390.715,493.381
	c-45.631,0-82.623-36.994-82.623-82.622c0-45.635,36.992-82.625,82.623-82.625c45.633,0,82.623,36.99,82.623,82.625
	C-308.092,456.387-345.082,493.381-390.715,493.381z"/>
<g>
	<path fill="#FFFFFF" d="M-326.234,410.892c0-35.593-28.852-64.447-64.445-64.447s-64.447,28.854-64.447,64.447
		c0,35.594,28.854,64.448,64.447,64.448S-326.234,446.485-326.234,410.892z M-454.85,410.892c0-32.333,30.092-58.544,64.17-58.544
		c34.076,0,64.172,26.211,64.172,58.544c0,32.337-30.096,58.548-64.172,58.548C-424.76,469.439-454.85,443.229-454.85,410.892z"/>
</g>
<path fill="#656A70" d="M-726.749,337.89c-40.242,40.246-40.242,105.492,0,145.735c40.243,40.243,105.489,40.243,145.735,0
	c40.242-40.243,40.242-105.489,0-145.735C-621.259,297.646-686.507,297.646-726.749,337.89z M-588.636,476.005
	c-36.035,36.035-94.459,36.035-130.494,0c-36.032-36.036-36.032-94.46,0-130.495c36.035-36.032,94.459-36.032,130.494,0
	C-552.599,381.545-552.599,439.969-588.636,476.005z"/>
<path fill="#F5F4F5" d="M-719.13,345.51c-36.032,36.035-36.032,94.459,0,130.495c36.035,36.035,94.459,36.035,130.494,0
	c36.037-36.036,36.037-94.46,0-130.495C-624.671,309.478-683.095,309.478-719.13,345.51z M-595.457,469.18
	c-32.268,32.267-84.582,32.267-116.85,0c-32.265-32.264-32.265-84.581,0-116.845c32.266-32.268,84.582-32.268,116.85,0
	C-563.191,384.599-563.191,436.916-595.457,469.18z"/>
<g>
	<path fill="#FFFFFF" d="M-653.759,346.384c-35.594,0-64.451,28.852-64.451,64.448c0,35.59,28.857,64.444,64.451,64.444
		c35.592,0,64.445-28.852,64.445-64.448C-589.314,375.238-618.167,346.384-653.759,346.384z M-653.759,475.004
		c-32.336-0.004-58.549-30.096-58.549-64.172c0-34.08,26.213-64.175,58.549-64.175c32.332,0,58.545,30.095,58.545,64.175
		C-595.214,444.908-621.427,475.004-653.759,475.004z"/>
</g>
<rect x="-540.376" y="337.802" transform="matrix(-0.313 0.9498 -0.9498 -0.313 -286.9492 887.8054)" fill="#237599" width="151.579" height="4.627"/>
<rect x="-544.77" y="336.352" transform="matrix(-0.313 0.9498 -0.9498 -0.313 -294.0992 890.0778)" fill="#3295CF" width="151.578" height="4.629"/>
<polygon fill="#3295CF" points="-657.554,410.023 -589.621,262.433 -578.226,270.532 -650,412.778 "/>
<polygon fill="#237599" points="-392.629,413.37 -453.855,305.639 -450.508,293.188 -388.455,411.374 "/>
<polygon fill="#237599" points="-595.417,279.664 -494.268,431.9 -498.027,434.598 -599.173,282.361 "/>
<polygon fill="#3295CF" points="-591.654,276.966 -490.508,429.202 -494.268,431.9 -595.417,279.664 "/>
<path fill="#656A70" d="M-493.367,259.099c0,0-0.252-4.688,11.01-4.688c0,0,40.416,0.582,47.035-2.67c0,0,6.387-2.788,10.801-2.788
	c0,0,10.336,0.696,10.336,8.594c0,0,1.277,5.808-7.084,9.174c0,0-12.658,5.111-22.762,5.111c0,0-11.73,0.349-15.33-3.251
	c0,0-5.807-4.413-12.893-6.271c0,0-3.713-0.697-8.941-0.697c0,0-12.172,0.812-12.172-2.207"/>
<polygon fill="#237599" points="-604.435,269.894 -449.18,293.188 -450.756,297.588 -605.123,274.471 "/>
<polygon fill="#3B393E" points="-477.689,426.592 -489.59,427.901 -481.832,418.026 -484.643,415.774 -492.402,425.65 
	-494.664,405.211 -498.244,405.606 -495.982,426.049 -512.035,413.193 -514.285,416.004 -498.234,428.859 -518.673,431.122 
	-518.277,434.7 -497.838,432.442 -510.691,448.491 -507.879,450.742 -495.025,434.69 -492.762,455.13 -489.184,454.734 
	-491.445,434.295 -481.746,441.506 -479.494,438.692 -489.193,431.484 -477.295,430.174 "/>
<circle fill="#3B393E" cx="-492.992" cy="429.309" r="17.408"/>
<path fill="#EBEBEB" d="M-483.127,428.218c0.604,5.448-3.324,10.354-8.773,10.956c-5.449,0.605-10.355-3.326-10.957-8.774
	c-0.604-5.448,3.324-10.354,8.773-10.956C-488.635,418.838-483.729,422.77-483.127,428.218z"/>
<path fill="#2A2D2E" d="M-487.422,428.693c0.338,3.073-1.879,5.844-4.955,6.184c-3.074,0.343-5.844-1.876-6.184-4.949
	c-0.34-3.077,1.877-5.848,4.953-6.187C-490.533,423.398-487.764,425.617-487.422,428.693z"/>
<rect x="-604.935" y="276.575" transform="matrix(-0.9889 -0.1489 0.1489 -0.9889 -1093.9109 475.8999)" fill="#3295CF" width="151.579" height="4.628"/>
<g>
	<circle fill="#2A2D2E" cx="-390.713" cy="410.759" r="13.141"/>
	<path fill="#F5F4F5" d="M-390.715,397.284c-7.438,0-13.467,6.034-13.467,13.475c0,7.438,6.029,13.468,13.467,13.468
		c7.439,0,13.471-6.03,13.471-13.468C-377.244,403.318-383.275,397.284-390.715,397.284z M-390.715,422.819
		c-6.66,0-12.062-5.401-12.062-12.061c0-6.662,5.402-12.064,12.062-12.064c6.662,0,12.062,5.402,12.062,12.064
		C-378.652,417.418-384.053,422.819-390.715,422.819z"/>
	<circle fill="#F5F4F5" cx="-390.712" cy="410.756" r="3.952"/>
	<path fill="#F5F4F5" d="M-388.795,402.853c0,1.062-0.857,1.916-1.918,1.916c-1.059,0-1.916-0.854-1.916-1.916
		c0-1.058,0.857-1.916,1.916-1.916C-389.652,400.937-388.795,401.795-388.795,402.853z"/>
	<path fill="#F5F4F5" d="M-388.795,418.958c0,1.058-0.857,1.912-1.918,1.912c-1.059,0-1.916-0.854-1.916-1.912
		c0-1.062,0.857-1.92,1.916-1.92C-389.652,417.038-388.795,417.896-388.795,418.958z"/>
	<circle fill="#F5F4F5" cx="-382.664" cy="410.905" r="1.916"/>
	<path fill="#F5F4F5" d="M-398.768,412.821c-1.055,0-1.912-0.858-1.912-1.916s0.857-1.916,1.912-1.916
		c1.061,0,1.918,0.858,1.918,1.916S-397.707,412.821-398.768,412.821z"/>
	<path fill="#F5F4F5" d="M-383.666,406.567c-0.748,0.745-1.961,0.745-2.709,0c-0.748-0.748-0.748-1.962,0-2.71
		c0.748-0.749,1.959-0.749,2.709,0C-382.92,404.605-382.92,405.819-383.666,406.567z"/>
	<path fill="#F5F4F5" d="M-395.051,417.953c-0.75,0.749-1.961,0.749-2.711-0.003c-0.746-0.745-0.746-1.959,0-2.708
		c0.75-0.748,1.961-0.748,2.709,0C-394.303,415.991-394.303,417.205-395.051,417.953z"/>
	<path fill="#F5F4F5" d="M-386.375,417.953c-0.748-0.748-0.748-1.962,0-2.711c0.748-0.748,1.961-0.748,2.709,0
		c0.746,0.749,0.746,1.963,0,2.708C-384.414,418.702-385.627,418.702-386.375,417.953z"/>
	<path fill="#F5F4F5" d="M-397.762,406.567c-0.746-0.748-0.746-1.962,0-2.71c0.75-0.749,1.961-0.749,2.711,0
		c0.748,0.748,0.748,1.962-0.002,2.71C-395.801,407.312-397.012,407.312-397.762,406.567z"/>
</g>
<g>
	<path fill="#2A2D2E" d="M-644.589,401.466c5.131,5.132,5.131,13.45,0,18.583c-5.133,5.132-13.453,5.132-18.586,0.003
		c-5.131-5.136-5.131-13.454,0-18.586C-658.042,396.333-649.722,396.333-644.589,401.466z"/>
	<path fill="#F5F4F5" d="M-663.406,401.232c-5.264,5.259-5.264,13.79,0,19.049c5.26,5.263,13.791,5.263,19.049,0
		c5.26-5.259,5.26-13.786,0-19.049C-649.615,395.971-658.148,395.971-663.406,401.232z M-645.351,419.287
		c-4.711,4.71-12.35,4.71-17.061,0c-4.709-4.71-4.711-12.35,0-17.06s12.35-4.71,17.061,0
		C-640.642,406.938-640.642,414.577-645.351,419.287z"/>
	<path fill="#F5F4F5" d="M-651.089,407.962c1.543,1.543,1.543,4.048,0.002,5.591c-1.543,1.543-4.047,1.543-5.59-0.003
		c-1.541-1.54-1.541-4.045,0.002-5.588C-655.134,406.418-652.63,406.418-651.089,407.962z"/>
	<path fill="#F5F4F5" d="M-658.117,403.813c0.748,0.749,0.748,1.963,0,2.708c-0.746,0.748-1.961,0.752-2.709,0
		c-0.748-0.745-0.75-1.959,0-2.708C-660.078,403.065-658.863,403.065-658.117,403.813z"/>
	<path fill="#F5F4F5" d="M-646.73,415.199c0.746,0.748,0.746,1.963,0,2.707c-0.748,0.752-1.963,0.752-2.709,0.004
		s-0.748-1.963,0-2.711C-648.693,414.451-647.478,414.451-646.73,415.199z"/>
	<path fill="#F5F4F5" d="M-646.73,406.521c-0.748,0.752-1.961,0.748-2.709,0c-0.748-0.749-0.746-1.959,0-2.708
		c0.746-0.748,1.961-0.748,2.709,0C-645.984,404.562-645.984,405.776-646.73,406.521z"/>
	<path fill="#F5F4F5" d="M-658.117,417.91c-0.746,0.748-1.961,0.748-2.709-0.004c-0.75-0.744-0.748-1.959,0-2.707
		s1.963-0.748,2.709,0C-657.369,415.947-657.367,417.162-658.117,417.91z"/>
	<path fill="#F5F4F5" d="M-651.863,402.81c0,1.061-0.857,1.916-1.916,1.916c-1.057,0-1.916-0.858-1.916-1.916
		s0.859-1.916,1.916-1.916C-652.72,400.896-651.863,401.752-651.863,402.81z"/>
	<path fill="#F5F4F5" d="M-651.863,418.911c0,1.062-0.857,1.916-1.916,1.916c-1.057,0.003-1.916-0.858-1.916-1.916
		s0.859-1.916,1.916-1.916C-652.72,416.999-651.863,417.854-651.863,418.911z"/>
	<circle fill="#F5F4F5" cx="-645.726" cy="410.862" r="1.916"/>
	<circle fill="#F5F4F5" cx="-661.829" cy="410.862" r="1.916"/>
</g>
<polyline fill="#3B393E" points="-496.947,402.443 -392.672,392.897 -392.381,395.515 -495.545,406.238 -496.947,402.853 "/>
<path fill="#3B393E" d="M-372.688,408.899c-1.098-9.936-10.045-17.1-19.984-16.002c-9.939,1.101-17.102,10.048-16.002,19.986
	c0.811,7.331,5.9,13.143,12.502,15.251l-77.254,20.014c5.396-5.611,8.359-13.484,7.432-21.826
	c-1.648-14.908-15.074-25.662-29.982-24.012c-14.914,1.649-25.664,15.077-24.013,29.988c1.648,14.908,15.076,25.661,29.986,24.012
	c2.863-0.319,5.574-1.074,8.07-2.186l93.246-25.238C-378.75,427.789-371.586,418.838-372.688,408.899z M-490.438,452.383
	c-12.742,1.41-24.217-7.777-25.627-20.52c-1.41-12.739,7.775-24.215,20.52-25.625c12.742-1.41,24.217,7.776,25.627,20.52
	c1.221,11.043-5.525,21.124-15.639,24.533l-3.084,0.799C-489.234,452.203-489.828,452.316-490.438,452.383z M-388.979,426.269
	c-8.492,0.941-16.139-5.182-17.078-13.674c-0.939-8.491,5.182-16.139,13.676-17.08c8.492-0.941,16.141,5.186,17.078,13.678
	C-374.363,417.681-380.482,425.331-388.979,426.269z"/>
<g>
	<path fill="#174E65" d="M-624.148,252.423c1.418-0.625,7.428-1.411,10.248-2.948c2.598-1.413,10.914-5.448,13.984-7.496
		l13.48,11.722c0,0-12.48,21.723-15.6,22.982c-3.119,1.258-8.98-1.99-12.775-3.584c-3.791-1.597-4.199-5.034-7.34-4.348
		c-3.139,0.685-4.264,1.299-4.949-1.843c-0.686-3.138,1.484-6.955,1.742-7.826C-625.099,258.206-625.566,253.045-624.148,252.423z"
		/>
</g>
<g>
	<path fill="#DB8F67" d="M-556.267,139.093c0,0-2.463,13.033-6.092,15.607l-22.279-8.891c0,0-4.973,4.319-9.482,4.703
		c0,0,12.363-9.663,11.652-21.989c0,0,6.549-0.396,5.67-9.093c0,0,2.961,10.017,0.871,9.643
		C-582.029,127.979-560.839,136.021-556.267,139.093z"/>
</g>
<g>
	<path fill="#62595B" d="M-480.023,278.304l-39.744-31.536l57.15-65.659l21.723-25.471c0,0,22.229,14.846,26.68,22.931
		c0,0,19.135,25.236-2.518,48.771C-438.383,250.877-480.023,278.304-480.023,278.304z"/>
</g>
<g>
	<path fill="#CA4643" d="M-440.164,189.038l-0.02,0.02c-10.91,8.04-25.529,12.46-26.93,12.39c-1.15-0.07-11.641-1.79-25-4.77
		c-3.92-0.87-8.07-1.84-12.311-2.92c-7.709-1.94-15.699-4.2-22.978-6.72l15.958-58.85l0.049,0.01
		c6.121,1.79,13.352,4.04,20.852,6.35l2.26,0.69c3.779,1.17,7.6,2.34,11.359,3.46c7.859,2.35,15.451,4.51,21.84,6.03
		c21.201,5.05,25.951,20.23,25.951,20.23C-425.803,174.808-431.924,182.958-440.164,189.038z"/>
</g>
<g>
	<path fill="#50494A" d="M-590.761,276.187c1.996,0.122,3.502,1.826,3.383,3.812c-0.119,1.986-1.826,3.501-3.809,3.382
		c-0.438-0.026-3.506-0.232-7.789-1c-11.576-2.074-31.969-8.268-32.764-26.201c-0.838-19.021,19.748-30.001,20.627-30.459
		c0.781-0.408,1.688-0.52,2.539-0.305l35.148,8.768l-1.273,7.109l-34.215-8.533c-3.85,2.336-16.174,10.808-15.631,23.099
		C-623.746,273.963-591.085,276.167-590.761,276.187z"/>
</g>
<g>
	<path fill="#237599" d="M-620.015,263.575c1.51-0.667,7.922-1.505,10.93-3.142c3.012-1.64,13.266-6.597,15.65-8.521
		c0.006-0.002,0.01-0.012,0.016-0.015l16.828,8.012c-1.992,3.13-3.207,5.027-3.207,5.027s-13.305,23.169-16.633,24.513
		c-3.326,1.34-9.58-2.125-13.625-3.824c-4.045-1.701-4.479-5.368-7.828-4.636c-3.346,0.729-4.551,1.385-5.277-1.966
		c-0.73-3.352,1.58-7.42,1.857-8.35C-621.031,269.746-621.527,264.24-620.015,263.575z"/>
</g>
<g>
	<path fill="#333233" d="M-586.304,113.531c3.779,16.173,0.238,35.085,0.238,35.085l-4.648,1.851
		c3.074-10.357-0.254-33.576-0.254-33.576L-586.304,113.531z"/>
</g>
<g>
	<path fill="#333233" d="M-570.468,109.411c0.758,21.05-14.939,27.887-14.939,27.887l0.822-4.595
		c11.855-9.874,10.336-20.659,10.336-20.659L-570.468,109.411z"/>
</g>
<g>
	<path fill="#333233" d="M-560.408,120.802l2.312,7.382l-14.178-3.813l-4.861-3.054c-3.492,2.452-14.799-14.097-15.523-15.883
		c-0.727-1.788-1.633-12.752-1.633-12.752s8.119-0.115,26.576,6.249c18.465,6.362,15.902,11.818,15.902,11.818l-3.408,1.396
		l5.674,3.458L-560.408,120.802z"/>
</g>
<g>
	<path fill="none" d="M-618.591,113.5c-0.182,0.027-0.361,0.051-0.545,0.076c0.164-0.057,0.33-0.116,0.49-0.176
		C-618.626,113.434-618.609,113.466-618.591,113.5z"/>
</g>
<g>
	<path fill="#7E312B" d="M-555.732,75.458l-0.08,0.44c-11.891,9.06-39.74,29.18-62.83,37.5c-0.451-0.88-0.971-2.04-1.211-3.57
		c-0.539-3.59,0.5-9.19,7.891-17.7c4.449-5.13,12.439-8.7,21.029-11.18c4.42-1.28,9.01-2.27,13.35-3.02v-0.01
		c5.84-1.02,11.24-1.63,15.211-1.99C-558.302,75.558-555.732,75.458-555.732,75.458z"/>
</g>
<g>
	<path fill="#237599" d="M-551.443,100.168l-20.279,15.83c-9.521,4.44-33.65,2.05-41.9,0.31c-1.051-0.23-1.85-0.44-2.32-0.63
		c-1.119-0.44-2.061-1.11-2.65-2.18c18.82-2.81,46.43-14.17,59.611-19.94l-0.092,0.54l4.051,3.22L-551.443,100.168z"/>
</g>
<g>
	<path fill="#50494A" d="M-617.853,113.4c23.092-8.321,50.941-28.442,62.834-37.501l-3.166,17.662
		c-13.188,5.768-40.793,17.131-59.609,19.939C-617.816,113.466-617.833,113.434-617.853,113.4z"/>
</g>
<g>
	<path fill="#333233" d="M-595.156,151.434l9.992-5.346c0.959,0.356,0.789,3.006,0.789,3.006s-5.818,3.316-7.32,2.959
		C-593.203,151.696-595.156,151.434-595.156,151.434z"/>
</g>
<g>
	<path fill="#E6B282" d="M-522.494,153.869c0,0,0.26,53.824-2.521,58.931c-2.275,4.176-41.338,37.529-53.004,49.349l-16.314-9.603
		c2.857-1.548,42.205-54.016,42.205-54.016l0.109-45.074C-552.019,153.456-539.748,133.825-522.494,153.869z"/>
</g>
<g>
	<path fill="#50494A" d="M-640.111,257.598c-2.938,4.134-6.566,4.409-8.674,3.75c-0.061-0.015-0.121-0.011-0.184-0.025
		c-2.047-0.501-3.303-2.571-2.801-4.619c0.502-2.051,2.566-3.309,4.617-2.808c1.473,0.362,2.521,1.538,2.818,2.93
		c0.344-0.363,0.688-0.762,1.025-1.236c3.525-4.989,14.611-34.187,14.576-34.841c-0.033-0.656,4.277,0.373,3.352,0.207
		c-0.604-0.108,0.908,3.306,0.908,3.306S-636.21,252.107-640.111,257.598z"/>
</g>
<g>
	<path fill="#3295CF" d="M-630.123,228.474l4.742-7.517l12.676,5.804c-8.27,5.317-11.576,11.386-11.576,11.386L-630.123,228.474z"/>
</g>
<g>
	<path fill="#DB8F67" d="M-525.746,159.25l-3.35,51.687l-51.057,49.423l-2.445-1.869l44.797-51.473l4.379-51.657
		C-532.718,150.159-525.746,159.25-525.746,159.25z"/>
</g>
<g>
	<polygon fill="#262425" points="-478.943,199.863 -469.066,201.449 -519.767,246.768 	"/>
</g>
<g>
	<path fill="#E6B282" d="M-448.109,366.444c0,0-71.949-66.34-82.806-80.44c-10.863-14.095,0.676-26.356,0.676-26.356l18.115-21.66
		l44.664,31.648l-17.922,12.749l58.459,68.859L-448.109,366.444z"/>
</g>
<g>
	<path fill="#707DA1" d="M-410.629,362.39c3.137,6.792,2.105,11.389-2.705,15.091c-4.818,3.709-16.121,13.518-17.453,15.15
		c-1.328,1.63-11.605,14.951-18.396,18.095c-6.789,3.146-14.385,6.144-19.82,2.887c0,0-2.393-1.676-1.18-4.989
		c1.217-3.31,14.947-22.028,16.434-27.996c1.482-5.967,3.805-14.272,3.805-14.272s21.469-8.614,21.611-17.522
		C-428.334,348.832-413.773,355.598-410.629,362.39z"/>
</g>
<polyline fill="#50494A" points="-413.803,377.198 -456.252,411.733 -450.375,417.388 -410.713,379.493 -413.277,377.024 "/>
<polygon fill="#7E312B" points="-560.478,187.122 -552.113,189.038 -552.113,181.266 -560.478,179.768 "/>
<path fill="#FFFFFF" d="M-555.732,75.458l-0.08,0.44c-11.891,9.06-39.74,29.18-62.83,37.5c-0.451-0.88-0.971-2.04-1.211-3.57
	c2.359-1.07,40.49-18.35,57.48-33.9C-558.302,75.558-555.732,75.458-555.732,75.458z"/>
<path fill="#CA4643" d="M-577.583,77.928c-0.029,0.09-0.07,0.17-0.119,0.27c-3.939,8.29-36.109,26.56-37.49,27.34
	c1.029-8.36,13.84-18.64,24.26-24.59C-586.513,79.668-581.923,78.678-577.583,77.928z"/>
<g>
	<path fill="#333233" d="M-602.847,92.804c10.596-1.761-7.688,10.82-12.391,12.766C-615.238,105.569-613.441,94.564-602.847,92.804z
		"/>
</g>
<path fill="#262425" d="M-555.023,97.318c0,0-38.92,21.46-58.58,18.98l-0.02,0.01c-1.051-0.23-1.85-0.44-2.32-0.63
	c-1.119-0.44-2.061-1.11-2.65-2.18c18.82-2.81,46.43-14.17,59.611-19.94l-0.092,0.54L-555.023,97.318z"/>
<path opacity="0.8" fill="#CFD1D2" d="M-602.513,259.299c0,0-7.369,6.239,1.277,13.202c0,0,6.305,6.274,11.129-0.618
	c0,0,1.17-3.86-4.309-9.236C-594.416,262.646-598.378,257.193-602.513,259.299z"/>
<g opacity="0.4">
	<path fill="#222221" d="M-599.275,286.676c-1.311,0.028-3.158-0.956-3.734-1.193c-0.584-0.233-4.637-2.398-4.637-2.398
		l-2.936-1.834c0,0-3.299-3.462-4.264-3.179c-0.967,0.283-3.672,0.808-3.672,0.808s3.443-5.36,5.803-4.677
		c2.359,0.687,6.438,4.164,8.5,5.774c2.062,1.61,4.826,2.235,6.105-0.541c1.283-2.776,15.158-18.981,15.158-18.981l1.125,1.01
		l-3.754,4.92c0,0-10.447,17.472-11.1,18.927C-597.332,286.765-597.964,286.651-599.275,286.676z"/>
</g>
<path fill="#FFFFFF" d="M-476.924,138.698l-15.189,57.98c-11.031-2.45-24.01-5.74-35.289-9.64l15.958-58.85l0.049,0.01l20.852,6.35
	l2.26,0.69L-476.924,138.698z"/>
<path fill="#7E312B" d="M-440.164,189.038l-0.02,0.02c-10.91,8.04-25.529,12.46-26.93,12.39c-1.15-0.07-11.641-1.79-25-4.77
	c-3.92-0.87-8.07-1.84-12.311-2.92l2.26-12.49l17.48-12.951C-484.684,168.317-445.203,175.873-440.164,189.038z"/>
<path fill="#C5C5C5" d="M-519.767,158.558c0,0,19.507,6.466,35.083,9.76l-7.43,28.361c0,0-20.873-5.045-30.769-8.14l0.395-19.624
	L-519.767,158.558z"/>
<path opacity="0.5" fill="#222221" d="M-545.328,144.852c0,0-8.52,1.676-6.697,10.786l41.072,12.11c0,0,52.699,12.02,65.859,24.565
	c0,0,8.725-5.275,11.793-9.549C-433.301,182.764-440.641,162.404-545.328,144.852z"/>
<g>
	<path fill="#62595B" d="M-523.164,196.108l-28.949-7.07l0.09-35.58c0,0,12.281-19.63,29.529,0.41
		C-522.494,153.868-522.373,178.578-523.164,196.108z"/>
</g>
<polygon fill="#CA4643" points="-522.882,188.538 -523.244,197.868 -528.183,196.898 -536.802,195.198 -552.113,192.188 
	-552.113,183.568 -536.042,186.298 -527.593,187.738 "/>
<g opacity="0.4">
	<path fill="#222221" d="M-525.742,159.248l-1.852,28.49l-0.59,9.16l-8.619-1.7l0.76-8.9l2.619-30.94
		C-532.722,150.158-525.742,159.248-525.742,159.248z"/>
</g>
<path fill="#3A373A" d="M-478.943,199.863c0,0,31.805-34.212,49.811-34.905c0,0,6.781,0.737,14.33,12.66
	c0,0,5.926,6.936,7.568,17.086c0,0-30.764-12.151-56.408,10.42L-478.943,199.863z"/>
<path fill="#3A373A" d="M-462.865,205.125l-37.473,41.216l-11.787-8.352c0,0,25.846-31.997,33.182-38.125L-462.865,205.125z"/>
<path fill="#D9D9D9" d="M-488.156,254.972l56.197-64.254c0,0,0.674-5.614-3.506-7.771c0,0-4.854-3.771-9.574,1.283l-55.299,62.111
	L-488.156,254.972z"/>
<polygon fill="#CA4643" points="-456.424,261.588 -467.543,269.898 -512.123,237.988 -502.773,226.588 -490.803,235.628 
	-479.023,244.528 "/>
<polygon opacity="0.4" fill="#FFFFFF" points="-479.023,244.528 -488.154,254.968 -500.334,246.338 -490.803,235.628 "/>
<path fill="#FFFFFF" d="M-469.598,346.444l20.879-20.872l20.385,23.26c0,0-0.381,10.697-20.631,17.11L-469.598,346.444z"/>
<polygon fill="#CA4643" points="-462.707,353.035 -442.055,333.352 -448.719,325.572 -469.598,346.444 "/>
<path fill="#237599" d="M-461.979,395.482c0,0,7.656,2.849,19.924-4.151c0,0,10.492-7.749,15.131-3.458l-28.203,25.497
	c0,0-10.184,5.044-15.4,0C-470.527,413.37-475.336,408.801-461.979,395.482z"/>
<path fill="#3A4A59" d="M-465.465,415.612c0,0,10.299-2.717,31.076-24.026c0,0,23.723-18.082,23.76-29.196
	c0,0,5.541,9.485-2.273,15.346c0,0-19.953,16.501-21.963,19.882C-434.865,397.617-448.418,416.553-465.465,415.612z"/>
<path fill="#237599" d="M-537.203,425.616c0,0-6.531-1.976-7.963,1.099l-2.332,5.647l28.211,3.777
	C-519.287,436.14-538.107,431.2-537.203,425.616z"/>
<path fill="#7E312B" d="M-513.473,373.06l28.781-4.639c0,0-2.92,5.915-3.443,9.266l-23.568,5.095L-513.473,373.06z"/>
<path fill="#DB8F67" d="M-519.767,247.125c0,0,34.914,13.012,47.726,25.604l4.498-2.832l-44.582-32.294L-519.767,247.125z"/>
<g>
	<path fill="#DB8F67" d="M437.732,271.122c0,0,16.904,55.053,18.428,69.658c1.521,14.603-1.508,70.455-1.508,70.455l-20.168,1.36
		l-25.458-134.16L437.732,271.122z"/>
</g>
<path fill="#C5C5C5" d="M427.734,377.024l25.781-3.223c0,0-6.256,16.021-6.469,28.348l-0.543,9.522l-12.451,1.149L427.734,377.024z"
	/>
<g>
	<path fill="#DB8F67" d="M407.757,149.547c0,0,0.244,50.471-2.367,55.263c-2.135,3.916-38.762,35.191-49.703,46.277
		c-1.057,1.656-1.668,2.615-1.668,2.615l-13.48-11.722c3.643-2.837,39.428-50.55,39.428-50.55l0.102-42.268
		C380.067,149.161,391.577,130.752,407.757,149.547z"/>
</g>
<polygon fill="#353030" points="379.976,179.768 380.03,164.898 383.521,164.898 388.341,168.602 390.907,173.64 388.341,181.266 
	"/>
<g>
	<path fill="#E6B282" d="M332.169,101.007c12.191-5.5,28.328,1.754,28.328,1.754l5.775,17.492l3.564-1.281
		c0,0,34.664,16.196,35.215,16.597c0.549,0.404-23.012,20.687-23.012,20.687s-23.406-9.252-26.225-10.447
		c-5.295,2.822-10.043,5.196-10.791,5.062c-1.811-0.324-8.949-11.635-8.949-11.635l-0.646-5.453c0,0-6.807,0.872-6.732,0.47
		c0.074-0.402,3.49-10.188,3.49-10.188s-0.754-1.591-1.213-2.502C330.515,120.647,332.169,101.007,332.169,101.007z"/>
</g>
<g>
	<path fill="#3A373A" d="M473.34,201.448c-1.15-0.07-11.641-1.79-25-4.77c-11.031-2.45-24.01-5.74-35.288-9.64
		c-4.41-1.51-8.561-3.12-12.23-4.81c-24.451-11.24-23.99-24.24-19.691-29.08c4.291-4.84,7.221-26.42,7.221-26.42
		s6.852-6.19,28.34-1.79c3.07,0.63,7.339,1.79,12.368,3.26c9.791,2.86,22.432,6.9,34.471,10.5c7.859,2.35,15.451,4.51,21.84,6.03
		c21.201,5.05,25.951,20.23,25.951,20.23C519.049,187.838,475.799,201.578,473.34,201.448z"/>
</g>
<path fill="#7E312B" d="M384.712,144.854c0,0,17.75,3.361,36.234,13.849l-8.119,28.335c0,0-34.691-0.876-34.012-31.4l-0.01-0.774
	C378.806,154.864,382.917,151.915,384.712,144.854z"/>
<polyline fill="#50494A" points="435.414,437.87 391.19,431.9 391.19,439.237 435.812,441.303 435.812,438.1 "/>
<g>
	<path fill="#525A73" d="M395.485,426.375c1.473-2.435,6.322-0.528,8.441-0.771c2.115-0.243,17.381-4.357,17.381-4.357
		l14.704-10.248l15.268,25.998l-12.514,1.5l-45.81-6.134C392.956,432.362,394.013,428.81,395.485,426.375z"/>
</g>
<path fill="#656A70" d="M549.738,307.708c-56.912,0-103.047,46.137-103.047,103.051c0,56.911,46.135,103.048,103.047,103.048
	s103.051-46.137,103.051-103.048C652.789,353.845,606.65,307.708,549.738,307.708z M549.738,503.03
	c-50.961,0-92.271-41.312-92.271-92.271c0-50.964,41.311-92.274,92.271-92.274c50.963,0,92.273,41.311,92.273,92.274
	C642.012,461.719,600.701,503.03,549.738,503.03z"/>
<path fill="#C5C5C5" d="M549.738,318.484c-50.961,0-92.271,41.311-92.271,92.274c0,50.96,41.311,92.271,92.271,92.271
	c50.963,0,92.273-41.312,92.273-92.271C642.012,359.795,600.701,318.484,549.738,318.484z M549.738,493.381
	c-45.631,0-82.623-36.994-82.623-82.622c0-45.635,36.992-82.625,82.623-82.625c45.633,0,82.623,36.99,82.623,82.625
	C632.361,456.387,595.371,493.381,549.738,493.381z"/>
<g>
	<path fill="#C5C5C5" d="M614.219,410.892c0-35.593-28.852-64.447-64.445-64.447s-64.447,28.854-64.447,64.447
		c0,35.594,28.854,64.448,64.447,64.448S614.219,446.485,614.219,410.892z M485.604,410.892c0-32.333,30.092-58.544,64.17-58.544
		c34.076,0,64.172,26.211,64.172,58.544c0,32.337-30.096,58.548-64.172,58.548C515.693,469.439,485.604,443.229,485.604,410.892z"/>
</g>
<path fill="#656A70" d="M213.705,337.89c-40.242,40.246-40.242,105.492,0,145.735c40.243,40.243,105.489,40.243,145.735,0
	c40.242-40.243,40.242-105.489,0-145.735C319.194,297.646,253.946,297.646,213.705,337.89z M351.817,476.005
	c-36.035,36.035-94.459,36.035-130.494,0c-36.032-36.036-36.032-94.46,0-130.495c36.035-36.032,94.459-36.032,130.494,0
	C387.854,381.545,387.854,439.969,351.817,476.005z"/>
<path fill="#C5C5C5" d="M221.323,345.51c-36.032,36.035-36.032,94.459,0,130.495c36.035,36.035,94.459,36.035,130.494,0
	c36.037-36.036,36.037-94.46,0-130.495C315.782,309.478,257.358,309.478,221.323,345.51z M344.997,469.18
	c-32.268,32.267-84.582,32.267-116.85,0c-32.265-32.264-32.265-84.581,0-116.845c32.266-32.268,84.582-32.268,116.85,0
	C377.263,384.599,377.263,436.916,344.997,469.18z"/>
<g>
	<path fill="#C5C5C5" d="M286.694,346.384c-35.594,0-64.451,28.852-64.451,64.448c0,35.59,28.857,64.444,64.451,64.444
		c35.592,0,64.445-28.852,64.445-64.448C351.14,375.238,322.286,346.384,286.694,346.384z M286.694,475.004
		c-32.336-0.004-58.549-30.096-58.549-64.172c0-34.08,26.213-64.175,58.549-64.175c32.332,0,58.545,30.095,58.545,64.175
		C345.239,444.908,319.026,475.004,286.694,475.004z"/>
</g>
<rect x="400.077" y="337.802" transform="matrix(-0.313 0.9498 -0.9498 -0.313 947.8231 -5.4069)" fill="#237599" width="151.579" height="4.627"/>
<rect x="395.683" y="336.352" transform="matrix(-0.313 0.9498 -0.9498 -0.313 940.6767 -3.1334)" fill="#3295CF" width="151.578" height="4.629"/>
<polygon fill="#3295CF" points="282.899,410.023 350.833,262.433 362.228,270.532 290.454,412.778 "/>
<polygon fill="#237599" points="547.824,413.37 486.598,305.639 489.945,293.188 551.998,411.374 "/>
<polygon fill="#237599" points="345.036,279.664 446.186,431.9 442.426,434.598 341.28,282.361 "/>
<polygon fill="#3295CF" points="348.8,276.966 449.945,429.202 446.186,431.9 345.036,279.664 "/>
<path fill="#656A70" d="M447.086,259.099c0,0-0.252-4.688,11.01-4.688c0,0,40.416,0.582,47.035-2.67c0,0,6.387-2.788,10.801-2.788
	c0,0,10.336,0.696,10.336,8.594c0,0,1.277,5.808-7.084,9.174c0,0-12.658,5.111-22.762,5.111c0,0-11.73,0.349-15.33-3.251
	c0,0-5.807-4.413-12.893-6.271c0,0-3.713-0.697-8.941-0.697c0,0-12.172,0.812-12.172-2.207"/>
<polygon fill="#237599" points="336.019,269.894 491.273,293.188 489.697,297.588 335.331,274.471 "/>
<polygon fill="#3B393E" points="462.764,426.592 450.863,427.901 458.621,418.026 455.811,415.774 448.051,425.65 445.789,405.211 
	442.209,405.606 444.471,426.049 428.418,413.193 426.168,416.004 442.219,428.859 421.78,431.122 422.176,434.7 442.615,432.442 
	429.762,448.491 432.574,450.742 445.428,434.69 447.691,455.13 451.27,454.734 449.008,434.295 458.707,441.506 460.959,438.692 
	451.26,431.484 463.158,430.174 "/>
<circle fill="#3B393E" cx="447.461" cy="429.309" r="17.408"/>
<path fill="#C5C5C5" d="M457.326,428.218c0.604,5.448-3.324,10.354-8.773,10.956c-5.449,0.605-10.355-3.326-10.957-8.774
	c-0.604-5.448,3.324-10.354,8.773-10.956C451.818,418.838,456.725,422.77,457.326,428.218z"/>
<path fill="#2A2D2E" d="M453.031,428.693c0.338,3.073-1.879,5.844-4.955,6.184c-3.074,0.343-5.844-1.876-6.184-4.949
	c-0.34-3.077,1.877-5.848,4.953-6.187C449.92,423.398,452.689,425.617,453.031,428.693z"/>
<rect x="335.519" y="276.575" transform="matrix(-0.9889 -0.1489 0.1489 -0.9889 776.5171 615.8986)" fill="#3295CF" width="151.579" height="4.628"/>
<g>
	<circle fill="#2A2D2E" cx="549.74" cy="410.759" r="13.141"/>
	<path fill="#C5C5C5" d="M549.738,397.284c-7.438,0-13.467,6.034-13.467,13.475c0,7.438,6.029,13.468,13.467,13.468
		c7.439,0,13.471-6.03,13.471-13.468C563.209,403.318,557.178,397.284,549.738,397.284z M549.738,422.819
		c-6.66,0-12.062-5.401-12.062-12.061c0-6.662,5.402-12.064,12.062-12.064c6.662,0,12.062,5.402,12.062,12.064
		C561.801,417.418,556.4,422.819,549.738,422.819z"/>
	<circle fill="#C5C5C5" cx="549.741" cy="410.756" r="3.952"/>
	<path fill="#C5C5C5" d="M551.658,402.853c0,1.062-0.857,1.916-1.918,1.916c-1.059,0-1.916-0.854-1.916-1.916
		c0-1.058,0.857-1.916,1.916-1.916C550.801,400.937,551.658,401.795,551.658,402.853z"/>
	<path fill="#C5C5C5" d="M551.658,418.958c0,1.058-0.857,1.912-1.918,1.912c-1.059,0-1.916-0.854-1.916-1.912
		c0-1.062,0.857-1.92,1.916-1.92C550.801,417.038,551.658,417.896,551.658,418.958z"/>
	<circle fill="#C5C5C5" cx="557.789" cy="410.905" r="1.916"/>
	<path fill="#C5C5C5" d="M541.686,412.821c-1.055,0-1.912-0.858-1.912-1.916s0.857-1.916,1.912-1.916
		c1.061,0,1.918,0.858,1.918,1.916S542.746,412.821,541.686,412.821z"/>
	<path fill="#C5C5C5" d="M556.787,406.567c-0.748,0.745-1.961,0.745-2.709,0c-0.748-0.748-0.748-1.962,0-2.71
		c0.748-0.749,1.959-0.749,2.709,0C557.533,404.605,557.533,405.819,556.787,406.567z"/>
	<path fill="#C5C5C5" d="M545.402,417.953c-0.75,0.749-1.961,0.749-2.711-0.003c-0.746-0.745-0.746-1.959,0-2.708
		c0.75-0.748,1.961-0.748,2.709,0C546.15,415.991,546.15,417.205,545.402,417.953z"/>
	<path fill="#C5C5C5" d="M554.078,417.953c-0.748-0.748-0.748-1.962,0-2.711c0.748-0.748,1.961-0.748,2.709,0
		c0.746,0.749,0.746,1.963,0,2.708C556.039,418.702,554.826,418.702,554.078,417.953z"/>
	<path fill="#C5C5C5" d="M542.691,406.567c-0.746-0.748-0.746-1.962,0-2.71c0.75-0.749,1.961-0.749,2.711,0
		c0.748,0.748,0.748,1.962-0.002,2.71C544.652,407.312,543.441,407.312,542.691,406.567z"/>
</g>
<g>
	<path fill="#2A2D2E" d="M295.864,401.466c5.131,5.132,5.131,13.45,0,18.583c-5.133,5.132-13.453,5.132-18.586,0.003
		c-5.131-5.136-5.131-13.454,0-18.586C282.411,396.333,290.731,396.333,295.864,401.466z"/>
	<path fill="#F5F4F5" d="M277.048,401.232c-5.264,5.259-5.264,13.79,0,19.049c5.26,5.263,13.791,5.263,19.049,0
		c5.26-5.259,5.26-13.786,0-19.049C290.839,395.971,282.306,395.971,277.048,401.232z M295.103,419.287
		c-4.711,4.71-12.35,4.71-17.061,0c-4.709-4.71-4.711-12.35,0-17.06s12.35-4.71,17.061,0
		C299.812,406.938,299.812,414.577,295.103,419.287z"/>
	<path fill="#F5F4F5" d="M289.364,407.962c1.543,1.543,1.543,4.048,0.002,5.591c-1.543,1.543-4.047,1.543-5.59-0.003
		c-1.541-1.54-1.541-4.045,0.002-5.588C285.319,406.418,287.823,406.418,289.364,407.962z"/>
	<path fill="#F5F4F5" d="M282.337,403.813c0.748,0.749,0.748,1.963,0,2.708c-0.746,0.748-1.961,0.752-2.709,0
		c-0.748-0.745-0.75-1.959,0-2.708C280.376,403.065,281.591,403.065,282.337,403.813z"/>
	<path fill="#F5F4F5" d="M293.724,415.199c0.746,0.748,0.746,1.963,0,2.707c-0.748,0.752-1.963,0.752-2.709,0.004
		s-0.748-1.963,0-2.711C291.761,414.451,292.976,414.451,293.724,415.199z"/>
	<path fill="#F5F4F5" d="M293.724,406.521c-0.748,0.752-1.961,0.748-2.709,0c-0.748-0.749-0.746-1.959,0-2.708
		c0.746-0.748,1.961-0.748,2.709,0C294.47,404.562,294.47,405.776,293.724,406.521z"/>
	<path fill="#F5F4F5" d="M282.337,417.91c-0.746,0.748-1.961,0.748-2.709-0.004c-0.75-0.744-0.748-1.959,0-2.707
		s1.963-0.748,2.709,0C283.085,415.947,283.087,417.162,282.337,417.91z"/>
	<path fill="#F5F4F5" d="M288.591,402.81c0,1.061-0.857,1.916-1.916,1.916c-1.057,0-1.916-0.858-1.916-1.916
		s0.859-1.916,1.916-1.916C287.733,400.896,288.591,401.752,288.591,402.81z"/>
	<path fill="#F5F4F5" d="M288.591,418.911c0,1.062-0.857,1.916-1.916,1.916c-1.057,0.003-1.916-0.858-1.916-1.916
		s0.859-1.916,1.916-1.916C287.733,416.999,288.591,417.854,288.591,418.911z"/>
	<circle fill="#F5F4F5" cx="294.728" cy="410.862" r="1.916"/>
	<circle fill="#F5F4F5" cx="278.625" cy="410.862" r="1.916"/>
</g>
<polyline fill="#3B393E" points="443.506,402.443 547.781,392.897 548.072,395.515 444.908,406.238 443.506,402.853 "/>
<path fill="#3B393E" d="M567.766,408.899c-1.098-9.936-10.045-17.1-19.984-16.002c-9.939,1.101-17.102,10.048-16.002,19.986
	c0.811,7.331,5.9,13.143,12.502,15.251l-77.254,20.014c5.396-5.611,8.359-13.484,7.432-21.826
	c-1.648-14.908-15.074-25.662-29.982-24.012c-14.914,1.649-25.663,15.077-24.013,29.988c1.647,14.908,15.075,25.661,29.985,24.012
	c2.863-0.319,5.574-1.074,8.07-2.186l93.246-25.238C561.703,427.789,568.867,418.838,567.766,408.899z M450.016,452.383
	c-12.742,1.41-24.217-7.777-25.627-20.52c-1.41-12.739,7.775-24.215,20.52-25.625c12.742-1.41,24.217,7.776,25.627,20.52
	c1.221,11.043-5.525,21.124-15.639,24.533l-3.084,0.799C451.219,452.203,450.625,452.316,450.016,452.383z M551.475,426.269
	c-8.492,0.941-16.139-5.182-17.078-13.674c-0.939-8.491,5.182-16.139,13.676-17.08c8.492-0.941,16.141,5.186,17.078,13.678
	C566.09,417.681,559.971,425.331,551.475,426.269z"/>
<g>
	<path fill="#174E65" d="M316.306,252.423c1.418-0.625,7.428-1.411,10.248-2.948c2.598-1.413,10.914-5.448,13.984-7.496
		l13.48,11.722c0,0-12.48,21.723-15.6,22.982c-3.119,1.258-8.98-1.99-12.775-3.584c-3.791-1.597-4.199-5.034-7.34-4.348
		c-3.139,0.685-4.264,1.299-4.949-1.843c-0.686-3.138,1.484-6.955,1.742-7.826C315.354,258.206,314.888,253.045,316.306,252.423z"/>
</g>
<g>
	<path fill="#DB8F67" d="M384.187,139.093c0,0-2.463,13.033-6.092,15.607l-22.279-8.891c0,0-4.973,4.319-9.482,4.703
		c0,0,12.363-9.663,11.652-21.989c0,0,6.549-0.396,5.67-9.093c0,0,2.961,10.017,0.871,9.643
		C358.425,127.979,379.614,136.021,384.187,139.093z"/>
</g>
<g>
	<path fill="#62595B" d="M460.43,278.304l-39.743-31.536l57.149-65.659l21.723-25.471c0,0,22.229,14.846,26.68,22.931
		c0,0,19.135,25.236-2.518,48.771C502.07,250.877,460.43,278.304,460.43,278.304z"/>
</g>
<g>
	<path fill="#CA4643" d="M500.289,189.038l-0.02,0.02c-10.91,8.04-25.529,12.46-26.93,12.39c-1.15-0.07-11.641-1.79-25-4.77
		c-3.92-0.87-8.07-1.84-12.311-2.92c-7.709-1.94-15.698-4.2-22.978-6.72l15.958-58.85l0.049,0.01
		c6.121,1.79,13.352,4.04,20.852,6.35l2.26,0.69c3.779,1.17,7.6,2.34,11.359,3.46c7.859,2.35,15.451,4.51,21.84,6.03
		c21.201,5.05,25.951,20.23,25.951,20.23C514.65,174.808,508.529,182.958,500.289,189.038z"/>
</g>
<g>
	<path fill="#50494A" d="M349.692,276.187c1.996,0.122,3.502,1.826,3.383,3.812c-0.119,1.986-1.826,3.501-3.809,3.382
		c-0.438-0.026-3.506-0.232-7.789-1c-11.576-2.074-31.969-8.268-32.764-26.201c-0.838-19.021,19.748-30.001,20.627-30.459
		c0.781-0.408,1.688-0.52,2.539-0.305l35.148,8.768l-1.273,7.109l-34.215-8.533c-3.85,2.336-16.174,10.808-15.631,23.099
		C316.708,273.963,349.368,276.167,349.692,276.187z"/>
</g>
<g>
	<path fill="#237599" d="M320.438,263.575c1.51-0.667,7.922-1.505,10.93-3.142c3.012-1.64,13.266-6.597,15.65-8.521
		c0.006-0.002,0.01-0.012,0.016-0.015l16.828,8.012c-1.992,3.13-3.207,5.027-3.207,5.027s-13.305,23.169-16.633,24.513
		c-3.326,1.34-9.58-2.125-13.625-3.824c-4.045-1.701-4.479-5.368-7.828-4.636c-3.346,0.729-4.551,1.385-5.277-1.966
		c-0.73-3.352,1.58-7.42,1.857-8.35C319.423,269.746,318.927,264.24,320.438,263.575z"/>
</g>
<g>
	<path fill="#333233" d="M354.149,113.531c3.779,16.173,0.238,35.085,0.238,35.085l-4.648,1.851
		c3.074-10.357-0.254-33.576-0.254-33.576L354.149,113.531z"/>
</g>
<g>
	<path fill="#333233" d="M369.985,109.411c0.758,21.05-14.939,27.887-14.939,27.887l0.822-4.595
		c11.855-9.874,10.336-20.659,10.336-20.659L369.985,109.411z"/>
</g>
<g>
	<path fill="#333233" d="M380.046,120.802l2.312,7.382l-14.178-3.813l-4.861-3.054c-3.492,2.452-14.799-14.097-15.523-15.883
		c-0.727-1.788-1.633-12.752-1.633-12.752s8.119-0.115,26.576,6.249c18.465,6.362,15.902,11.818,15.902,11.818l-3.408,1.396
		l5.674,3.458L380.046,120.802z"/>
</g>
<g>
	<path fill="none" d="M321.862,113.5c-0.182,0.027-0.361,0.051-0.545,0.076c0.164-0.057,0.33-0.116,0.49-0.176
		C321.827,113.434,321.845,113.466,321.862,113.5z"/>
</g>
<g>
	<path fill="#7E312B" d="M384.722,75.458l-0.08,0.44c-11.891,9.06-39.74,29.18-62.83,37.5c-0.451-0.88-0.971-2.04-1.211-3.57
		c-0.539-3.59,0.5-9.19,7.891-17.7c4.449-5.13,12.439-8.7,21.029-11.18c4.42-1.28,9.01-2.27,13.35-3.02v-0.01
		c5.84-1.02,11.24-1.63,15.211-1.99C382.151,75.558,384.722,75.458,384.722,75.458z"/>
</g>
<g>
	<path fill="#237599" d="M389.011,100.168l-20.279,15.83c-9.521,4.44-33.65,2.05-41.9,0.31c-1.051-0.23-1.85-0.44-2.32-0.63
		c-1.119-0.44-2.061-1.11-2.65-2.18c18.82-2.81,46.43-14.17,59.611-19.94l-0.092,0.54l4.051,3.22L389.011,100.168z"/>
</g>
<g>
	<path fill="#50494A" d="M322.601,113.4c23.092-8.321,50.941-28.442,62.834-37.501l-3.166,17.662
		c-13.188,5.768-40.793,17.131-59.609,19.939C322.638,113.466,322.62,113.434,322.601,113.4z"/>
</g>
<g>
	<path fill="#333233" d="M345.298,151.434l9.992-5.346c0.959,0.356,0.789,3.006,0.789,3.006s-5.818,3.316-7.32,2.959
		C347.251,151.696,345.298,151.434,345.298,151.434z"/>
</g>
<g>
	<path fill="#E6B282" d="M417.96,153.869c0,0,0.26,53.824-2.521,58.931c-2.275,4.176-41.338,37.529-53.004,49.349l-16.314-9.603
		c2.857-1.548,42.205-54.016,42.205-54.016l0.109-45.074C388.435,153.456,400.706,133.825,417.96,153.869z"/>
</g>
<g>
	<path fill="#50494A" d="M300.343,257.598c-2.938,4.134-6.566,4.409-8.674,3.75c-0.061-0.015-0.121-0.011-0.184-0.025
		c-2.047-0.501-3.303-2.571-2.801-4.619c0.502-2.051,2.566-3.309,4.617-2.808c1.473,0.362,2.521,1.538,2.818,2.93
		c0.344-0.363,0.688-0.762,1.025-1.236c3.525-4.989,14.611-34.187,14.576-34.841c-0.033-0.656,4.277,0.373,3.352,0.207
		c-0.604-0.108,0.908,3.306,0.908,3.306S304.243,252.107,300.343,257.598z"/>
</g>
<g>
	<path fill="#3295CF" d="M310.331,228.474l4.742-7.517l12.676,5.804c-8.27,5.317-11.576,11.386-11.576,11.386L310.331,228.474z"/>
</g>
<g>
	<path fill="#DB8F67" d="M414.708,159.25l-3.35,51.687l-51.057,49.423l-2.445-1.869l44.797-51.473l4.379-51.657
		C407.735,150.159,414.708,159.25,414.708,159.25z"/>
</g>
<g>
	<polygon fill="#262425" points="461.51,199.863 471.387,201.449 420.687,246.768 	"/>
</g>
<g>
	<path fill="#E6B282" d="M492.344,366.444c0,0-71.948-66.34-82.806-80.44c-10.863-14.095,0.676-26.356,0.676-26.356l18.114-21.66
		l44.664,31.648l-17.922,12.749l58.459,68.859L492.344,366.444z"/>
</g>
<g>
	<path fill="#707DA1" d="M529.824,362.39c3.137,6.792,2.105,11.389-2.705,15.091c-4.818,3.709-16.121,13.518-17.453,15.15
		c-1.328,1.63-11.605,14.951-18.396,18.095c-6.789,3.146-14.385,6.144-19.82,2.887c0,0-2.393-1.676-1.18-4.989
		c1.217-3.31,14.947-22.028,16.434-27.996c1.482-5.967,3.805-14.272,3.805-14.272s21.469-8.614,21.611-17.522
		C512.119,348.832,526.68,355.598,529.824,362.39z"/>
</g>
<polyline fill="#50494A" points="526.65,377.198 484.201,411.733 490.078,417.388 529.74,379.493 527.176,377.024 "/>
<polygon fill="#7E312B" points="379.976,187.122 388.341,189.038 388.341,181.266 379.976,179.768 "/>
<path fill="#FFFFFF" d="M384.722,75.458l-0.08,0.44c-11.891,9.06-39.74,29.18-62.83,37.5c-0.451-0.88-0.971-2.04-1.211-3.57
	c2.359-1.07,40.49-18.35,57.48-33.9C382.151,75.558,384.722,75.458,384.722,75.458z"/>
<path fill="#CA4643" d="M362.87,77.928c-0.029,0.09-0.07,0.17-0.119,0.27c-3.939,8.29-36.109,26.56-37.49,27.34
	c1.029-8.36,13.84-18.64,24.26-24.59C353.94,79.668,358.53,78.678,362.87,77.928z"/>
<g>
	<path fill="#333233" d="M337.606,92.804c10.596-1.761-7.688,10.82-12.391,12.766C325.216,105.569,327.013,94.564,337.606,92.804z"
		/>
</g>
<path fill="#262425" d="M385.431,97.318c0,0-38.92,21.46-58.58,18.98l-0.02,0.01c-1.051-0.23-1.85-0.44-2.32-0.63
	c-1.119-0.44-2.061-1.11-2.65-2.18c18.82-2.81,46.43-14.17,59.611-19.94l-0.092,0.54L385.431,97.318z"/>
<path opacity="0.8" fill="#CFD1D2" d="M337.94,259.299c0,0-7.369,6.239,1.277,13.202c0,0,6.305,6.274,11.129-0.618
	c0,0,1.17-3.86-4.309-9.236C346.038,262.646,342.075,257.193,337.94,259.299z"/>
<g opacity="0.4">
	<path fill="#222221" d="M341.179,286.676c-1.311,0.028-3.158-0.956-3.734-1.193c-0.584-0.233-4.637-2.398-4.637-2.398l-2.936-1.834
		c0,0-3.299-3.462-4.264-3.179c-0.967,0.283-3.672,0.808-3.672,0.808s3.443-5.36,5.803-4.677c2.359,0.687,6.438,4.164,8.5,5.774
		c2.062,1.61,4.826,2.235,6.105-0.541c1.283-2.776,15.158-18.981,15.158-18.981l1.125,1.01l-3.754,4.92
		c0,0-10.447,17.472-11.1,18.927C343.122,286.765,342.489,286.651,341.179,286.676z"/>
</g>
<path fill="#FFFFFF" d="M463.529,138.698l-15.189,57.98c-11.031-2.45-24.01-5.74-35.288-9.64l15.958-58.85l0.049,0.01l20.852,6.35
	l2.26,0.69L463.529,138.698z"/>
<path fill="#7E312B" d="M500.289,189.038l-0.02,0.02c-10.91,8.04-25.529,12.46-26.93,12.39c-1.15-0.07-11.641-1.79-25-4.77
	c-3.92-0.87-8.07-1.84-12.311-2.92l2.26-12.49l17.48-12.951C455.77,168.317,495.25,175.873,500.289,189.038z"/>
<path fill="#C5C5C5" d="M420.687,158.558c0,0,19.507,6.466,35.083,9.76l-7.43,28.361c0,0-20.873-5.045-30.769-8.14l0.395-19.624
	L420.687,158.558z"/>
<path opacity="0.5" fill="#222221" d="M395.126,144.852c0,0-8.52,1.676-6.697,10.786l41.071,12.11c0,0,52.699,12.02,65.859,24.565
	c0,0,8.725-5.275,11.793-9.549C507.152,182.764,499.812,162.404,395.126,144.852z"/>
<g>
	<path fill="#62595B" d="M417.29,196.108l-28.949-7.07l0.09-35.58c0,0,12.281-19.63,29.529,0.41
		C417.96,153.868,418.081,178.578,417.29,196.108z"/>
</g>
<polygon fill="#CA4643" points="417.571,188.538 417.21,197.868 412.271,196.898 403.651,195.198 388.341,192.188 388.341,183.568 
	404.411,186.298 412.86,187.738 "/>
<g opacity="0.4">
	<path fill="#222221" d="M414.712,159.248l-1.852,28.49l-0.59,9.16l-8.619-1.7l0.76-8.9l2.619-30.94
		C407.731,150.158,414.712,159.248,414.712,159.248z"/>
</g>
<path fill="#3A373A" d="M461.51,199.863c0,0,31.805-34.212,49.811-34.905c0,0,6.781,0.737,14.33,12.66c0,0,5.926,6.936,7.568,17.086
	c0,0-30.764-12.151-56.408,10.42L461.51,199.863z"/>
<path fill="#3A373A" d="M477.588,205.125l-37.473,41.216l-11.787-8.352c0,0,25.846-31.997,33.182-38.125L477.588,205.125z"/>
<path fill="#D9D9D9" d="M452.297,254.972l56.197-64.254c0,0,0.674-5.614-3.506-7.771c0,0-4.854-3.771-9.574,1.283l-55.299,62.111
	L452.297,254.972z"/>
<polygon fill="#CA4643" points="484.029,261.588 472.91,269.898 428.33,237.988 437.68,226.588 449.65,235.628 461.43,244.528 "/>
<polygon opacity="0.4" fill="#FFFFFF" points="461.43,244.528 452.299,254.968 440.119,246.338 449.65,235.628 "/>
<path fill="#C5C5C5" d="M470.855,346.444l20.879-20.872l20.385,23.26c0,0-0.381,10.697-20.631,17.11L470.855,346.444z"/>
<polygon fill="#CA4643" points="477.746,353.035 498.398,333.352 491.734,325.572 470.855,346.444 "/>
<path fill="#237599" d="M478.475,395.482c0,0,7.656,2.849,19.924-4.151c0,0,10.492-7.749,15.131-3.458l-28.203,25.497
	c0,0-10.184,5.044-15.4,0C469.926,413.37,465.117,408.801,478.475,395.482z"/>
<path fill="#3A4A59" d="M474.988,415.612c0,0,10.299-2.717,31.076-24.026c0,0,23.723-18.082,23.76-29.196
	c0,0,5.541,9.485-2.273,15.346c0,0-19.953,16.501-21.963,19.882C505.588,397.617,492.035,416.553,474.988,415.612z"/>
<path fill="#237599" d="M403.251,425.616c0,0-6.531-1.976-7.963,1.099l-2.332,5.647l28.211,3.777
	C421.167,436.14,402.347,431.2,403.251,425.616z"/>
<path fill="#7E312B" d="M426.98,373.06l28.781-4.639c0,0-2.92,5.915-3.443,9.266l-23.568,5.095L426.98,373.06z"/>
<path fill="#DB8F67" d="M420.687,247.125c0,0,34.913,13.012,47.726,25.604l4.498-2.832l-44.582-32.294L420.687,247.125z"/>
</svg>
