<?xml version="1.0" encoding="utf-8"?>
<!-- Generator: Adobe Illustrator 16.0.0, SVG Export Plug-In . SVG Version: 6.00 Build 0)  -->
<!DOCTYPE svg PUBLIC "-//W3C//DTD SVG 1.1//EN" "http://www.w3.org/Graphics/SVG/1.1/DTD/svg11.dtd">
<svg version="1.1" id="Livello_2" xmlns="http://www.w3.org/2000/svg" xmlns:xlink="http://www.w3.org/1999/xlink" x="0px" y="0px"
	 width="841.889px" height="595.279px" viewBox="0 0 841.889 595.279" enable-background="new 0 0 841.889 595.279"
	 xml:space="preserve">
<rect x="-957.096" width="841.889" height="595.279"/>
<rect fill="#FFFFFF" width="841.889" height="595.279"/>
<g>
	<path fill="#C4B99E" d="M-377.658,355.258c-1.713-16.859-6.936-31.754-20.975-40.875c-2.959-1.922-5.982-3.762-9.09-5.385
		l-41.443-15.465c-6.373-2.107-12.123-5.023-18.484-7.164l-91.416,0.064l-2.197,0.84c-6.211,2.086-12.76,4.332-19.334,6.482
		c-14.268,4.672-28.561,9.117-42.238,15.852c-15.402,7.586-24.336,20.557-27.795,38.547c-0.748,3.908-0.998,7.934-1.48,11.906
		c0,7.227,0,158.557,0,165.789c0.193,0.465,0.461-0.492,0.582,0h194.488c6.734,2.734,15.877,5.061,27.502,5.061
		c28.133,0,54.133,2.271,54.133-88.221C-375.471,435.256-376.916,362.619-377.658,355.258z"/>
	<path fill-rule="evenodd" clip-rule="evenodd" fill="#E3AA75" d="M-462.66,293.705c-19.951,2.129-18.139-38.488-18.863-58.479
		c0,0-22.645-1.922-28.287-2.109c-0.021-0.008-0.045-0.014-0.066-0.014c-0.096,0-0.209,0-0.332,0.002
		c-0.119-0.002-0.236-0.002-0.332-0.002c-0.021,0-0.043,0.006-0.066,0.014c-5.643,0.188-28.285,2.109-28.285,2.109
		c-0.725,19.99-1.033,56.605-20.982,54.48c-19.949-2.129,32.586,59.5,45.285,60.35h4.049h0.664h4.053
		C-493.129,349.207-442.711,291.58-462.66,293.705z"/>
	<path fill-rule="evenodd" clip-rule="evenodd" fill="#DA8E4F" d="M-543.188,274.543c12.643,17.246,30.576,19.773,46.676,14.049
		c7.166-2.551,12.838-7.514,17.387-13.867c-2.32-13.047-2.025-29.24-2.398-39.498c0,0-22.645-1.922-28.287-2.109
		c-0.021-0.008-0.045-0.014-0.066-0.014c-0.096,0-0.209,0-0.332,0.002c-0.119-0.002-0.236-0.002-0.332-0.002
		c-0.021,0-0.043,0.006-0.066,0.014c-5.643,0.188-28.285,2.109-28.285,2.109C-539.297,246.365-539.574,262.662-543.188,274.543z"/>
	<path fill-rule="evenodd" clip-rule="evenodd" fill="#E0EEF6" d="M-470.043,290.115c-2.221,12.328-14.654,42.492-42.988,42.809
		c-28.328-0.316-41.301-30.717-43.52-43.045l-10.936,1.912l31.896,60.178h21.789h22.441l30.141-42.961l2.643-17.217
		L-470.043,290.115z"/>
	<path fill-rule="evenodd" clip-rule="evenodd" fill="#E2A977" d="M-454.271,194.426c1.324-2.689,2.559-5.621,4.172-8.33
		c1.32-2.223,2.787-5.123,5.986-4.229c3.164,0.885,4.609,3.805,4.719,6.941c0.301,8.959-2.092,16.959-8.74,23.414
		c-1.396,1.352-2.346,3.24-3.268,5.002c-5.352,10.244-10.188,20.791-16.066,30.721c-6.07,10.252-14.43,18.568-26.215,22.146
		c-20.064,6.088-42.559,2.852-57.449-17.48c-8.039-10.971-13.684-23.188-19.242-35.482c-0.893-1.975-2.252-3.842-3.754-5.414
		c-6.357-6.668-8.686-14.668-8.09-23.648c0.078-1.207,0.688-2.475,1.352-3.525c2.301-3.641,5.352-3.875,7.879-0.371
		c1.955,2.719,3.391,5.814,5.43,8.705c-0.371-2.078-0.715-4.164-1.123-6.232c-2.074-10.539-3.982-20.465-3.457-31.275
		c0.082-1.742,0.768-6.678,1.232-8.344c2.305-8.332,3.936-15.301,11.549-19.938c1.445-0.879,15.33-7.629,22.223-1.277
		c19.695,15.641,30.059-10.713,52.256-7.494c8.814,1.277,22.719,29.133,31.59,30.01
		C-448.201,148.615-452.516,183.357-454.271,194.426z"/>
	<path fill-rule="evenodd" clip-rule="evenodd" fill="#2C285B" d="M-425.615,525.092c0,0.186-0.197,3.066-0.072,0.762
		c0-0.072,0.014-0.141,0.014-0.197C-425.643,525.318-425.629,525.15-425.615,525.092z"/>
	<path fill-rule="evenodd" clip-rule="evenodd" fill="#2C285B" d="M-583.059,292.064c8.131-2.902,15.957-5.352,23.426-6.34
		c0.189,0.34,0.377,0.678,0.566,1.02c-3.355,3.352,7.625,36.055,16.711,48.734c2.648,3.688,5.438,7.295,8.459,10.658
		c1.08,1.199,3.045,2.193,4.619,2.215c11.5,0.188,23.002,0.154,34.502,0.033c1.414-0.02,3.383-0.547,4.146-1.568
		c11.979-16.018,26.932-56.6,23.053-60.314c0.189-0.352,0.379-0.705,0.564-1.057c8.32,1.062,17.326,3.068,26.182,6.598
		c-2.842,6.389-4.715,8.434-7.414,13.25c-12.932,23.084-30.529,42.059-50.881,58.504c-1.129,0.91-2.871,1.408-4.34,1.447
		c-5.811,0.168-11.633,0.166-17.441,0.02c-1.342-0.035-2.908-0.58-3.949-1.426c-21.15-17.176-39.477-36.889-52.355-61.348
		C-579.295,298.531-580.764,297.482-583.059,292.064z"/>
	<path fill-rule="evenodd" clip-rule="evenodd" fill="#351717" d="M-509.803,128.746c1.693,3.012,3.494,6.213,5.873,10.439
		c-17.449-0.619-37.188-6.033-50.062-14.971c-14.615,13.08-12.098,59.098-14.457,68.756c-0.986-4.771-6.838-7.689-7.65-12.619
		c-2.23-13.494-5.744-41.465,1.59-59.645c4.467-8.455,9.102-11.301,9.412-11.961c7.504-15.973,21.078-20.443,36.078-24.566
		c6.939-1.908,13.859-4.145,20.488-7.07c5.666-2.502,9.787-7.191,10.65-14.432c7.852,5.113,13.627,16.947,11.359,24.314
		c8.189-3.143,15.834-4.562,20.199-14.982c3.811,7.768,3.656,17.148-0.314,24.348c7.145,2.121,9.109,4.131,16.684-3.402
		c4.68,10.422,0.32,20.416-7.949,19.678c14.326,8.393,13.805,31.359,14.008,38.057c0.318,10.523-2.869,30.938-8.885,42.506
		c-0.373-0.018-0.75-0.039-1.121-0.055c-0.791-4.674-1.365-9.412-2.42-14.01c-1.15-5.006-4.332-28.775-4.881-35.459
		c-0.07-0.898-27.715-7.305-34.674-9.26C-500.586,133.086-505.053,130.719-509.803,128.746z"/>
	<path fill="#2C285B" d="M-425.84,465.416c-0.186-0.029-0.352-0.057-0.52-0.084c-0.197-10.184-0.436-20.828-0.688-31.25
		c-0.859-34.482-2.01-66.393-3.146-70.65c-1.055,8.215-1.518,16.305-1.941,23.428c-0.098,1.688-0.193,41.842-0.307,78.557h-0.012
		l-3.697,8.398c0,0,1.365-0.451,3.68-0.941c0.984-0.213,2.137-0.436,3.43-0.631c0.896-0.141,1.836-0.213,2.809-0.213
		c11.053-0.014,26.18,8.092,26.18,8.092C-404.109,473.098-418.805,466.484-425.84,465.416z"/>
	<path fill="#EDC9B2" d="M-518.523,251.623c0,0,10.008,2.656,15.727-0.67c0,0-0.559,3.428-6.625,4.049
		C-515.49,255.623-518.523,251.623-518.523,251.623z"/>
	<g>
		<path fill="#EDCAB4" d="M-460.357,171.582c-6.102-5.006-12.617-4.387-19.953-2.717c-3.67,0.838-7.123,2.225-10.434,4.006
			c-1.67,0.9-5.043,3.289-6.67,0.707c-0.584-0.924-1.572-2.914-1.342-4.041c0.037-0.188-0.17-0.199-0.283-0.123
			c-3.557,2.301-0.967,9.547,3.438,8.139c5.648-1.795,10.396-4.947,16.295-6.295c6.07-1.385,12.84-2.105,18.525,0.834
			C-460.559,172.207-460.137,171.76-460.357,171.582z"/>
		<g>
			<g>
				<g>
					<path fill="#351717" d="M-462.668,165.57c-1.521-1.293-3.68-2.812-5.045-3.266c-1.717-0.764-6.943-0.596-12.682,0.23
						c-1.014,0.256-2.031,0.49-3.037,0.775c-3.822,1.08-7.834,2.113-11.406,3.879c-1.439,0.717-2.82,1.564-4.291,2.201
						c0.053,1.186,0.266,3.535,0.363,4.084c-0.059-0.066-0.127-0.125-0.18-0.191c-0.324-0.408-0.693-0.967-1.121-1.33
						c0.109,1.004,0.352,2.008,0.766,2.887c0.789,0.559,1.621,1.18,2.523,1.555c7.504-4.395,15.742-8.125,24.883-7.406
						c5.369,0.424,9.512,1.312,13.363,4.256c0.119-0.117,0.254-0.217,0.379-0.328C-458.387,170.457-460.844,167.59-462.668,165.57z"
						/>
				</g>
			</g>
			<g>
				<g>
					<path fill="#521D14" d="M-458.178,172.719c-7.584-6.002-17.07-8.18-26.059-5.098c-4.588,1.568-8.58,4.145-12.912,6.299
						c-0.816,0.408-1.652,0.434-2.443,0.221c0.082,0.248,0.191,0.477,0.299,0.709c0.787,0.553,1.615,1.172,2.516,1.545
						c7.504-4.395,15.742-8.125,24.883-7.406c5.369,0.424,9.512,1.312,13.363,4.256c0.119-0.117,0.252-0.223,0.379-0.328
						C-458.158,172.852-458.17,172.787-458.178,172.719z"/>
				</g>
			</g>
		</g>
	</g>
	<g>
		<path fill="#EDCAB4" d="M-518.043,213.361c-0.58-0.092-1.158-0.158-1.736-0.219c2.578,2.602,4.154,6.451,7.617,7.951
			c6.523,2.828,8.721-4.5,10.986-8.883c-2.973,0.789-7.436,1.82-10.502,1.941C-514.447,214.262-515.35,213.812-518.043,213.361z"/>
		<path fill="#E6B69A" d="M-506.502,215.773c2.023-0.844,3.717-2.133,5.318-3.541c0.002-0.012,0.002-0.016,0.008-0.021
			c-2.973,0.789-7.436,1.82-10.502,1.941c-2.77,0.109-3.672-0.34-6.365-0.791c-0.58-0.092-1.158-0.158-1.736-0.219
			c0.332,0.336,0.652,0.695,0.957,1.062C-514.945,216.045-510.59,217.482-506.502,215.773z"/>
		<path fill="#9D5322" d="M-512.543,214.949c3.494-0.275,6.701-1.135,9.982-2.086c0.027-0.037,0.053-0.068,0.086-0.105
			c0.24-0.307-5.967,0.82-8.834,1.324c-2.666,0.471-5.336-0.828-8-1.041c0.311-6.268,2.16-22.281,2.598-26.404
			c-0.002,0.012-0.01,0.023-0.016,0.035c-1.098,2.438-1.295,4.805-1.689,7.398c-0.316,2.064-2.373,16-2.887,18.332
			c-0.24,1.105,1.719,1.605,1.871,1.537c3.955,2.629,4.977,3.029,8.129,3.109c2.582,0.072,4.408,0.438,7.309-2.545
			c-1.617,1.016-2.623,2.156-8.465,1.629c-0.471-0.045-3.928-1.057-3.893-1.393C-516.318,214.484-512.904,214.977-512.543,214.949z"
			/>
		<path fill="#F7E9E2" d="M-516.049,186.43c-0.896,8.125-3.467,17.301-2.082,25.451c0.184,1.094,3.818,1.646,3.746,0.506
			c-0.529-8.184-1.229-17.717-1.154-25.926C-515.531,186.193-516.021,186.16-516.049,186.43z"/>
	</g>
	<g>
		<path fill="#EDCAB4" d="M-560.24,184.787c2.203,1.205,4.334,3.484,8.6,5.188c3.615,1.447,6.375,1.914,10.268,2.168
			c5.383,0.355,10.832,0,15.717-2.135c-0.131-0.547-0.428-1.168-0.68-1.658c-0.963-3.521-2.398-6.709-4.516-9.23
			c-5.133-4.508-11.701-6.828-18.816-5.23c-2.541,0.572-4.377,1.289-5.883,3.369c-1.832,2.516-1.598,3.607-2.273,6.324
			C-557.967,184.145-558.938,184.4-560.24,184.787z M-556.182,183.922c0.07-0.289-0.109-0.648-0.361-0.924
			c1.246-2.842,3.201-5.738,5.812-6.662c3.4-1.207,7.24-0.998,10.732-0.26c6.295,1.328,9.111,5.301,11.799,10.225
			c0.217,2.607-0.701,2.996-3.414,3.275c-2.781,0.285-5.602,0.496-8.402,0.348c-1.725-0.098-10.533-1.059-14.393-3.318
			c-0.018-0.051-0.02-0.098-0.053-0.158c-0.258-0.514-1.553-1.602-1.723-2.268C-556.176,184.094-556.203,184.008-556.182,183.922z"
			/>
		<g>
			<path fill="#653719" d="M-557.33,184.127c3.352,5.414,11.17,6.641,15.482,6.887c2.672,0.154,11.656-1,13.336-1.547
				c0.047-0.025,0.088-0.051,0.129-0.086c0.492-0.324,0.68-0.74,0.697-1.191c0.104,0.16,0.738,0.652,0.627,0.42
				c-1.008-2.148-1.73-4.441-2.943-6.508c-2.186-3.73-7.275-6.344-11.684-7.215c-1.01-0.201-2.037-0.354-3.092-0.438
				c-3.525-0.283-7.404,0.123-9.689,2.955C-555.709,178.949-556.957,182.094-557.33,184.127z"/>
			<path fill="#FFFFFF" d="M-555.947,183.727c1.648-4.268,3.113-8.232,8.988-8.328c4.645-0.076,11.021,1.787,14.67,4.951
				c0.799,0.904,4.514,6.785,3.355,7.846c-0.467,0.426-2.488,1.082-2.939,1.186c-2.648,0.652-5.684,0.705-8.418,0.771
				C-545.418,190.271-553.768,189.146-555.947,183.727z"/>
		</g>
		<g>
			<defs>
				<path id="SVGID_1_" d="M-555.947,183.727c1.648-4.268,3.113-8.232,8.988-8.328c4.645-0.076,11.021,1.787,14.67,4.951
					c0.799,0.904,4.514,6.785,3.355,7.846c-0.467,0.426-2.488,1.082-2.939,1.186c-2.648,0.652-5.684,0.705-8.418,0.771
					C-545.418,190.271-553.768,189.146-555.947,183.727z"/>
			</defs>
			<clipPath id="SVGID_2_">
				<use xlink:href="#SVGID_1_"  overflow="visible"/>
			</clipPath>
			<g clip-path="url(#SVGID_2_)">
				<g>
					<path fill="#1F1111" d="M-535.031,183.391c0,5.127-3.139,9.287-7.016,9.287s-7.014-4.16-7.014-9.287
						c0-5.125,3.137-9.279,7.014-9.279S-535.031,178.266-535.031,183.391z"/>
					<path fill="#521D14" d="M-542.047,174.752c-3.541,0-6.418,3.801-6.418,8.492c0,4.689,2.877,8.492,6.418,8.492
						c3.547,0,6.418-3.803,6.418-8.492C-535.629,178.553-538.5,174.752-542.047,174.752z"/>
					<path fill="#080509" d="M-537.699,182.883c0,3.232-1.979,5.854-4.428,5.854c-2.441,0-4.426-2.621-4.426-5.854
						s1.984-5.854,4.426-5.854C-539.678,177.029-537.699,179.65-537.699,182.883z"/>
					<path fill="#FFF9E3" d="M-543.807,179.43c-0.314,1.441-1.301,2.453-2.188,2.252c-0.891-0.189-1.354-1.521-1.037-2.963
						s1.297-2.451,2.188-2.256C-543.955,176.66-543.49,177.988-543.807,179.43z"/>
					<path fill="#804B23" d="M-538.547,187.555c-4.195,4.506-8.314,1.008-8.516-4.229c-0.004-0.141-0.939,0.699-0.93,0.803
						c0.195,2.895,1.369,5.504,4.145,6.705c2.395,1.039,4.572-0.48,5.891-2.334C-537.85,188.348-538.438,187.438-538.547,187.555z"
						/>
				</g>
				<path fill="#804B23" d="M-537.082,180.467c0,0,0.756,3.355-0.9,6.262l0.619,0.369
					C-537.363,187.098-535.268,184.428-537.082,180.467z"/>
			</g>
		</g>
	</g>
	<g>
		<path fill="#EDCAB4" d="M-523.396,170.275c-1.135-0.842-3.271,1.18-2.242,2.236c-0.049,2.09-0.709,2.43-1.973,1.02
			c-0.51-0.352-1.049-0.662-1.607-0.938c-1.734-0.982-3.471-1.838-5.305-2.615c-3.729-1.58-7.615-2.389-11.646-2.547
			c-4.055-0.16-8.123,0.854-12.041,1.758c-2.592,0.6-5.418,1.465-7.303,3.418c-0.15,0.154-0.34,0.494-0.137,0.689
			c0.02,0.016,0.037,0.035,0.057,0.051c0.102,0.1,0.262,0.086,0.385,0.031c0.062-0.029,0.127-0.059,0.189-0.09
			c0.121-0.053,0.271-0.188,0.279-0.33c0.002-0.037,0.006-0.074,0.008-0.109c0.01-0.094-0.039-0.176-0.146-0.15
			c5.008-1.129,10.805-2.143,15.965-2.445c6.297-0.367,12.484,1.906,17.857,5.008c2.137,1.232,4.807,3.541,7.125,1.234
			C-522.221,174.791-521.09,171.982-523.396,170.275z"/>
		<g>
			<g>
				<g>
					<path fill="#351717" d="M-560.748,165.57c1.52-1.293,3.672-2.812,5.043-3.266c1.715-0.764,6.939-0.596,12.682,0.23
						c1.012,0.256,2.029,0.49,3.033,0.775c3.822,1.08,7.838,2.113,11.404,3.879c1.441,0.717,2.822,1.564,4.291,2.201
						c-0.049,1.186-0.266,3.535-0.363,4.084c0.061-0.066,0.127-0.125,0.182-0.191c0.324-0.408,0.695-0.967,1.123-1.33
						c-0.109,1.004-0.352,2.008-0.768,2.887c-0.789,0.559-1.621,1.18-2.525,1.555c-7.502-4.395-15.74-8.125-24.879-7.406
						c-5.369,0.424-9.508,1.312-13.365,4.256c-0.121-0.117-0.252-0.217-0.377-0.328C-565.033,170.457-562.582,167.59-560.748,165.57
						z"/>
				</g>
			</g>
			<g>
				<g>
					<path fill="#521D14" d="M-565.242,172.719c7.582-6.002,17.068-8.18,26.061-5.098c4.586,1.568,8.574,4.145,12.908,6.299
						c0.82,0.408,1.654,0.434,2.447,0.221c-0.086,0.248-0.195,0.477-0.305,0.709c-0.787,0.553-1.615,1.172-2.516,1.545
						c-7.502-4.395-15.74-8.125-24.879-7.406c-5.369,0.424-9.508,1.312-13.365,4.256c-0.121-0.117-0.25-0.223-0.377-0.328
						C-565.262,172.852-565.25,172.787-565.242,172.719z"/>
				</g>
			</g>
		</g>
	</g>
	<g>
		<g>
			<path fill="#EDC9B2" d="M-482.943,225.182c0.162,0.891,0.049,1.738-0.848,2.139c-0.662,0.742-1.73,1.303-3.398,1.65
				c-7.277,1.506-15.033,0.125-22.295-0.787c-3.777-0.479-7.377-0.742-11.148-0.158c-1.643,0.312-4.982,1.156-8.287,1.533
				c-1.045,0.182-2.094,0.338-3.154,0.441c-1.252,0.119-2.211,0.014-2.992-0.287c-1.504-0.16-2.758-0.654-3.457-1.689
				c-0.359,0.707-0.438,1.473,0.133,2.355c0.49,0.762,1.121,1.375,1.838,1.91c1.207,0.16,2.549,0.154,3.443,1.322
				c1.373,1.795,3.393,4.807,4.631,7.271c6.137,7.215,19.242,8.492,27.729,5.404c6.277-2.287,8.93-6.064,12.104-11.168
				c0.516-0.832,1.07-1.584,1.654-2.277C-483.924,227.434-480.656,229.383-482.943,225.182z"/>
			<path fill="#9D4E21" d="M-483.141,224.402c0.4,1.258,0.535,2.666-1.064,3.062c-0.641,0.156-1.291,0.248-1.943,0.326
				c-1.846,0.436-3.789,0.547-5.705,0.766c-4.021,0.451-8.098,0.367-12.137,0.32c-5.75-0.059-11.746-1.762-17.428-0.65
				c-0.523,0.027-1.043,0.061-1.568,0.102c-3.004,0.686-6.004,1.377-9.088,1.672c-1.252,0.119-2.209,0.014-2.992-0.287
				c-1.439-0.156-2.648-0.615-3.363-1.566c0.883,2.365,2.42,3.021,4.68,3.072c3.914,3.359,5.174,9.111,10.088,11.416
				c4.691,2.199,10.613,3.361,15.885,3.172c4.555-0.158,9.395-1.707,12.781-4.51c1.758-1.455,2.703-3.34,3.617-5.279
				c1.559-3.297,3.48-5.1,6.586-7.195c0.033-0.021,0.041-0.055,0.062-0.084c0.455-0.164,0.92-0.32,1.34-0.518
				c0.225-0.012,0.443-0.088,0.609-0.242c0.014-0.014,0.016-0.029,0.029-0.039l0.012-0.002c0.217-0.119,0.314-0.289,0.352-0.473
				C-481.842,226.459-482.248,225.162-483.141,224.402z M-492.469,235.625c-2.633,5.572-7.061,8.236-13.67,8.809
				c-5.246,0.457-11.203-0.787-16.041-2.521c-5.248-1.881-6.652-7.623-10.914-10.682c0.385-0.01,0.795-0.031,1.217-0.062
				c5.736-0.41,11.107-2.646,16.955-2.789c0.047,0,0.068-0.037,0.061-0.072c4.51,0.406,9.121,1.49,13.473,1.693
				c3.861,0.176,8.889,0.389,13.273-0.381C-490.168,231.057-491.459,233.498-492.469,235.625z"/>
			<path fill="#8C1F1C" d="M-492.469,235.625c-2.633,5.572-7.061,8.236-13.67,8.809c-5.246,0.457-11.203-0.787-16.041-2.521
				c-5.248-1.881-6.652-7.623-10.914-10.682c0.385-0.01,0.795-0.031,1.217-0.062c5.736-0.41,11.107-2.646,16.955-2.789
				c0.047,0,0.068-0.037,0.061-0.072c4.51,0.406,9.121,1.49,13.473,1.693c3.861,0.176,8.889,0.389,13.273-0.381
				C-490.168,231.057-491.459,233.498-492.469,235.625z"/>
			<path fill="#FFFFFF" d="M-493.887,233.152c0.84-0.984,1.605-2.029,2.287-3.121c-3.408,0.25-6.92,0.104-9.789-0.031
				c-4.352-0.203-8.963-1.287-13.473-1.693c0.008,0.035-0.014,0.072-0.061,0.072c-4.438,0.111-8.6,1.42-12.859,2.223
				c1.146,2.258,2.404,4.002,5.834,4.699c3.273,0.668,6.508,1.41,9.877,1.594c4.09,0.225,8.045-0.09,11.924-0.844
				C-497.861,235.404-495.662,234.535-493.887,233.152z"/>
			<path opacity="0.6" fill="#B7A997" d="M-497.209,232.766c-0.477,1.234-1.266,2.24-2.254,3.084
				c2.035-0.625,3.975-1.453,5.576-2.697c0.84-0.984,1.605-2.029,2.287-3.121c-3.408,0.25-6.92,0.104-9.789-0.031
				c-4.352-0.203-8.963-1.287-13.473-1.693c0.008,0.035-0.014,0.072-0.061,0.072c-4.438,0.111-8.6,1.42-12.859,2.223
				c0.102,0.205,0.205,0.398,0.312,0.594c4.539-0.363,8.953-1.396,13.568-1.182c5.406,0.254,10.729,1.082,16.074,1.824
				C-497.328,231.902-497.039,232.334-497.209,232.766z"/>
			<path fill="#D27360" d="M-507.973,240.1c-5.127-0.549-9.25,0.25-13.332,2.107c4.678,1.57,10.227,2.652,15.166,2.227
				c2.383-0.205,4.471-0.695,6.299-1.484C-502.281,241.514-504.939,240.432-507.973,240.1z"/>
		</g>
		<path fill="#9D4E21" d="M-519.393,250.914c4.266,3.838,11.814,3.926,16.268,0.549c0.158-0.123,0.277-0.318,0.328-0.51
			C-508.465,252.244-514.049,252.803-519.393,250.914z"/>
	</g>
	<g>
		<path fill="#EDCAB4" d="M-464.504,183.721c-0.674-2.713-0.443-3.805-2.273-6.322c-1.51-2.074-3.344-2.799-5.879-3.367
			c-7.115-1.596-13.689,0.725-18.818,5.23c-2.121,2.52-3.557,5.711-4.518,9.232c-0.256,0.484-0.553,1.107-0.684,1.658
			c4.883,2.131,10.34,2.49,15.719,2.137c3.893-0.26,6.654-0.725,10.268-2.172c4.268-1.707,6.396-3.982,8.6-5.186
			C-463.391,184.545-464.363,184.291-464.504,183.721z M-466.145,184.324c-0.174,0.664-1.465,1.752-1.723,2.266
			c-0.029,0.059-0.037,0.107-0.055,0.156c-3.859,2.258-12.664,3.227-14.393,3.32c-2.801,0.15-5.623-0.061-8.404-0.35
			c-2.707-0.277-3.633-0.664-3.414-3.273c2.688-4.924,5.508-8.895,11.801-10.229c3.498-0.734,7.336-0.939,10.73,0.262
			c2.615,0.924,4.566,3.824,5.814,6.66c-0.252,0.279-0.432,0.639-0.359,0.926C-466.127,184.154-466.15,184.232-466.145,184.324z"/>
		<g>
			<g>
				<path fill="#653719" d="M-468.203,177.404c-2.287-2.832-6.164-3.238-9.693-2.955c-1.053,0.084-2.08,0.236-3.088,0.438
					c-4.408,0.871-9.5,3.484-11.689,7.215c-1.213,2.066-1.932,4.359-2.943,6.508c-0.109,0.232,0.529-0.26,0.631-0.42
					c0.016,0.451,0.205,0.867,0.691,1.191c0.047,0.035,0.088,0.061,0.135,0.086c1.682,0.547,10.662,1.701,13.334,1.547
					c4.312-0.246,12.131-1.473,15.482-6.887C-465.717,182.094-466.965,178.949-468.203,177.404z"/>
				<path fill="#FFFFFF" d="M-482.379,190.152c-2.74-0.066-5.771-0.119-8.424-0.771c-0.451-0.104-2.473-0.76-2.936-1.186
					c-1.16-1.061,2.553-6.941,3.352-7.846c3.652-3.164,10.029-5.027,14.674-4.951c5.873,0.096,7.344,4.061,8.992,8.328
					C-468.906,189.146-477.252,190.271-482.379,190.152z"/>
			</g>
			<g>
				<defs>
					<path id="SVGID_3_" d="M-482.379,190.152c-2.74-0.066-5.771-0.119-8.424-0.771c-0.451-0.104-2.473-0.76-2.936-1.186
						c-1.16-1.061,2.553-6.941,3.352-7.846c3.652-3.164,10.029-5.027,14.674-4.951c5.873,0.096,7.344,4.061,8.992,8.328
						C-468.906,189.146-477.252,190.271-482.379,190.152z"/>
				</defs>
				<clipPath id="SVGID_4_">
					<use xlink:href="#SVGID_3_"  overflow="visible"/>
				</clipPath>
				<g clip-path="url(#SVGID_4_)">
					<g>
						<path fill="#1F1111" d="M-473.607,183.391c0,5.127-3.145,9.287-7.021,9.287c-3.873,0-7.014-4.16-7.014-9.287
							c0-5.125,3.141-9.279,7.014-9.279C-476.752,174.111-473.607,178.266-473.607,183.391z"/>
						<ellipse fill="#521D14" cx="-480.629" cy="183.244" rx="6.418" ry="8.492"/>
						<ellipse fill="#080509" cx="-480.706" cy="182.883" rx="4.427" ry="5.854"/>
						<path fill="#FFF9E3" d="M-482.389,179.43c-0.316,1.441-1.299,2.453-2.188,2.252c-0.889-0.189-1.352-1.521-1.039-2.963
							c0.32-1.441,1.297-2.451,2.189-2.256C-482.533,176.66-482.072,177.988-482.389,179.43z"/>
						<path fill="#804B23" d="M-477.129,187.555c-4.195,4.506-8.316,1.008-8.512-4.229c-0.008-0.141-0.938,0.699-0.932,0.803
							c0.197,2.895,1.367,5.504,4.145,6.705c2.395,1.039,4.572-0.48,5.889-2.334C-476.434,188.348-477.018,187.438-477.129,187.555z
							"/>
					</g>
					<path fill="#804B23" d="M-475.66,180.467c0,0,0.754,3.355-0.904,6.262l0.621,0.369
						C-475.943,187.098-473.848,184.428-475.66,180.467z"/>
				</g>
			</g>
		</g>
	</g>
	<path fill="#F7E9E2" d="M-511.375,226.502c-2.863-0.486-5.713-0.783-8.762-0.443c-1.982,0.225-4.191,0.779-6.438,1.244
		c-0.887,0.215-1.779,0.416-2.695,0.592c-2.752,0.521-5.477,0.762-7.908-0.355c2.416,3.123,6.393,1.436,9.756,0.719
		c3.801-0.805,7.637-1.607,11.537-1.615c3.363-0.004,6.705,0.947,10.057,1.223C-507.682,227.416-509.527,226.932-511.375,226.502z"
		/>
	<path fill="#F7E9E2" d="M-506.766,248.812c-5.066,0.316-10.191,0.23-14.91-1.902c-0.197-0.086-0.535,0.258-0.361,0.43
		c3.967,3.93,10.125,4.123,15.123,2.227C-506.686,249.482-506.295,248.781-506.766,248.812z"/>
	<path fill-rule="evenodd" clip-rule="evenodd" fill="#521D14" d="M-562.035,121.316c0,0,7.357-6.037,11.99-6.037
		c0,0,21.363,11.953,31.896,12.852c0,0-2.166-4.225,0-8.828c0,0,52.217,2.875,65.07,22.717c0,0,0.992-20.99-23.598-27.891
		c0,0,19.326,2.014,19.441-7.762c0,0-22.777-2.299-16.234-11.787c0,0-22.195-0.074-18.064-10.961c0.17-0.449,0.385-0.916,0.648-1.4
		c6.645-12.281-31.037,6.609-31.037,6.609s-16.346,5.178-13.785,12.652C-535.707,101.48-557.131,93.141-562.035,121.316z"/>
	<g>
		<g>
			<g>
				<path fill="#D6D3DC" d="M-369.996,513.359c0,11.891-9.125,21.695-16.547,21.695h-274.873c-7.436,0-16.539-9.805-16.539-21.695
					H-369.996z"/>
			</g>
		</g>
		<path fill="#9491A4" d="M-370.178,516.064c-0.434,3.891-1.826,7.443-3.746,10.42h-300.125c-1.92-2.977-3.297-6.545-3.746-10.42
			H-370.178z"/>
	</g>
	<path opacity="0.4" fill="#B2B2BA" d="M-370.006,513.359c0,0.916-0.045,1.826-0.172,2.705c-0.434,3.891-1.826,7.443-3.746,10.42
		c-3.328,5.186-8.275,8.562-12.629,8.562h-58.221c4.354,0,9.283-3.377,12.625-8.562c1.922-2.977,3.299-6.529,3.746-10.42
		c0.111-0.879,0.16-1.789,0.16-2.705H-370.006z"/>
	<path fill="#3E3947" d="M-411.904,523.473c0,1.094-0.895,1.992-1.996,1.992h-5.09c-1.096,0-1.992-0.898-1.992-1.992v-1.773
		c0-1.094,0.896-1.988,1.992-1.988h5.09c1.102,0,1.996,0.895,1.996,1.988V523.473z"/>
	<path fill="#3E3947" d="M-396.631,523.473c0,1.094-0.895,1.992-1.992,1.992h-5.088c-1.098,0-1.992-0.898-1.992-1.992v-1.773
		c0-1.094,0.895-1.988,1.992-1.988h5.088c1.098,0,1.992,0.895,1.992,1.988V523.473z"/>
	<path fill="#D6D3DC" d="M-431.73,521.283h-242.783c-3.631,0-6.883-2.926-7.266-6.529l-20.484-187.27
		c-0.4-3.619,2.209-6.561,5.84-6.561h242.783c3.602,0,6.85,2.941,7.236,6.561l20.484,187.27
		C-425.523,518.357-428.129,521.283-431.73,521.283z"/>
	<path opacity="0.4" fill="#B2B2BA" d="M-431.73,521.283h-100.918l17.42-0.018c-28.422-119.238-141.457-200.342-141.457-200.342
		h203.045c3.602,0,6.85,2.941,7.236,6.561l20.484,187.27C-425.523,518.357-428.129,521.283-431.73,521.283z"/>
	<g>
		<path fill="#3E3947" d="M-568.484,431.828h-19.984v-27.154h8.654v20.578h12.156L-568.484,431.828z"/>
		<path fill="#3E3947" d="M-532.697,444.676h-8.498l-1.039-15.27l-7.615,15.27h-0.924l-7.385-15.27l-1.076,15.27h-8.385
			l3.039-27.156h8.574l5.732,13.422l5.924-13.422h8.539L-532.697,444.676z"/>
	</g>
</g>
<g>
	<path fill="#C4B99E" d="M579.438,355.258c-1.713-16.859-6.936-31.754-20.975-40.875c-2.959-1.922-5.982-3.762-9.09-5.385
		l-41.443-15.465c-6.373-2.107-12.123-5.023-18.484-7.164l-91.416,0.064l-2.197,0.84c-6.211,2.086-12.76,4.332-19.334,6.482
		c-14.268,4.672-28.561,9.117-42.238,15.852c-15.402,7.586-24.336,20.557-27.795,38.547c-0.748,3.908-0.998,7.934-1.48,11.906
		c0,7.227,0,158.557,0,165.789c0.193,0.465,0.461-0.492,0.582,0h194.488c6.734,2.734,15.877,5.061,27.502,5.061
		c28.133,0,54.133,2.271,54.133-88.221C581.625,435.256,580.18,362.619,579.438,355.258z"/>
	<path fill-rule="evenodd" clip-rule="evenodd" fill="#E3AA75" d="M494.436,293.705c-19.951,2.129-18.139-38.488-18.863-58.479
		c0,0-22.645-1.922-28.287-2.109c-0.021-0.008-0.045-0.014-0.066-0.014c-0.096,0-0.209,0-0.332,0.002
		c-0.119-0.002-0.236-0.002-0.332-0.002c-0.021,0-0.043,0.006-0.066,0.014c-5.643,0.188-28.285,2.109-28.285,2.109
		c-0.725,19.99-1.033,56.605-20.982,54.48c-19.949-2.129,32.586,59.5,45.285,60.35h4.049h0.664h4.053
		C463.967,349.207,514.385,291.58,494.436,293.705z"/>
	<path fill-rule="evenodd" clip-rule="evenodd" fill="#DA8E4F" d="M413.908,274.543c12.643,17.246,30.576,19.773,46.676,14.049
		c7.166-2.551,12.838-7.514,17.387-13.867c-2.32-13.047-2.025-29.24-2.398-39.498c0,0-22.645-1.922-28.287-2.109
		c-0.021-0.008-0.045-0.014-0.066-0.014c-0.096,0-0.209,0-0.332,0.002c-0.119-0.002-0.236-0.002-0.332-0.002
		c-0.021,0-0.043,0.006-0.066,0.014c-5.643,0.188-28.285,2.109-28.285,2.109C417.799,246.365,417.521,262.662,413.908,274.543z"/>
	<path fill-rule="evenodd" clip-rule="evenodd" fill="#E0EEF6" d="M487.053,290.115c-2.221,12.328-14.654,42.492-42.988,42.809
		c-28.328-0.316-41.301-30.717-43.52-43.045l-10.936,1.912l31.896,60.178h21.789h22.441l30.141-42.961l2.643-17.217L487.053,290.115
		z"/>
	<path fill-rule="evenodd" clip-rule="evenodd" fill="#E2A977" d="M502.824,194.426c1.324-2.689,2.559-5.621,4.172-8.33
		c1.32-2.223,2.787-5.123,5.986-4.229c3.164,0.885,4.609,3.805,4.719,6.941c0.301,8.959-2.092,16.959-8.74,23.414
		c-1.396,1.352-2.346,3.24-3.268,5.002c-5.352,10.244-10.188,20.791-16.066,30.721c-6.07,10.252-14.43,18.568-26.215,22.146
		c-20.064,6.088-42.559,2.852-57.449-17.48c-8.039-10.971-13.684-23.188-19.242-35.482c-0.893-1.975-2.252-3.842-3.754-5.414
		c-6.357-6.668-8.686-14.668-8.09-23.648c0.078-1.207,0.688-2.475,1.352-3.525c2.301-3.641,5.352-3.875,7.879-0.371
		c1.955,2.719,3.391,5.814,5.43,8.705c-0.371-2.078-0.715-4.164-1.123-6.232c-2.074-10.539-3.982-20.465-3.457-31.275
		c0.082-1.742,0.768-6.678,1.232-8.344c2.305-8.332,3.936-15.301,11.549-19.938c1.445-0.879,15.33-7.629,22.223-1.277
		c19.695,15.641,30.059-10.713,52.256-7.494c8.814,1.277,22.719,29.133,31.59,30.01C508.895,148.615,504.58,183.357,502.824,194.426
		z"/>
	<path fill-rule="evenodd" clip-rule="evenodd" fill="#2C285B" d="M531.48,525.092c0,0.186-0.197,3.066-0.072,0.762
		c0-0.072,0.014-0.141,0.014-0.197C531.453,525.318,531.467,525.15,531.48,525.092z"/>
	<path fill-rule="evenodd" clip-rule="evenodd" fill="#2C285B" d="M374.037,292.064c8.131-2.902,15.957-5.352,23.426-6.34
		c0.189,0.34,0.377,0.678,0.566,1.02c-3.355,3.352,7.625,36.055,16.711,48.734c2.648,3.688,5.438,7.295,8.459,10.658
		c1.08,1.199,3.045,2.193,4.619,2.215c11.5,0.188,23.002,0.154,34.502,0.033c1.414-0.02,3.383-0.547,4.146-1.568
		c11.979-16.018,26.932-56.6,23.053-60.314c0.189-0.352,0.379-0.705,0.564-1.057c8.32,1.062,17.326,3.068,26.182,6.598
		c-2.842,6.389-4.715,8.434-7.414,13.25c-12.932,23.084-30.529,42.059-50.881,58.504c-1.129,0.91-2.871,1.408-4.34,1.447
		c-5.811,0.168-11.633,0.166-17.441,0.02c-1.342-0.035-2.908-0.58-3.949-1.426c-21.15-17.176-39.477-36.889-52.355-61.348
		C377.801,298.531,376.332,297.482,374.037,292.064z"/>
	<path fill-rule="evenodd" clip-rule="evenodd" fill="#351717" d="M447.293,128.746c1.693,3.012,3.494,6.213,5.873,10.439
		c-17.449-0.619-37.188-6.033-50.062-14.971c-14.615,13.08-12.098,59.098-14.457,68.756c-0.986-4.771-6.838-7.689-7.65-12.619
		c-2.23-13.494-5.744-41.465,1.59-59.645c4.467-8.455,9.102-11.301,9.412-11.961c7.504-15.973,21.078-20.443,36.078-24.566
		c6.939-1.908,13.859-4.145,20.488-7.07c5.666-2.502,9.787-7.191,10.65-14.432c7.852,5.113,13.627,16.947,11.359,24.314
		c8.189-3.143,15.834-4.562,20.199-14.982c3.811,7.768,3.656,17.148-0.314,24.348c7.145,2.121,9.109,4.131,16.684-3.402
		c4.68,10.422,0.32,20.416-7.949,19.678c14.326,8.393,13.805,31.359,14.008,38.057c0.318,10.523-2.869,30.938-8.885,42.506
		c-0.373-0.018-0.75-0.039-1.121-0.055c-0.791-4.674-1.365-9.412-2.42-14.01c-1.15-5.006-4.332-28.775-4.881-35.459
		c-0.07-0.898-27.715-7.305-34.674-9.26C456.51,133.086,452.043,130.719,447.293,128.746z"/>
	<path fill="#2C285B" d="M531.256,465.416c-0.186-0.029-0.352-0.057-0.52-0.084c-0.197-10.184-0.436-20.828-0.688-31.25
		c-0.859-34.482-2.01-66.393-3.146-70.65c-1.055,8.215-1.518,16.305-1.941,23.428c-0.098,1.688-0.193,41.842-0.307,78.557h-0.012
		l-3.697,8.398c0,0,1.365-0.451,3.68-0.941c0.984-0.213,2.137-0.436,3.43-0.631c0.896-0.141,1.836-0.213,2.809-0.213
		c11.053-0.014,26.18,8.092,26.18,8.092C552.986,473.098,538.291,466.484,531.256,465.416z"/>
	<path fill="#EDC9B2" d="M438.572,251.623c0,0,10.008,2.656,15.727-0.67c0,0-0.559,3.428-6.625,4.049
		C441.605,255.623,438.572,251.623,438.572,251.623z"/>
	<g>
		<path fill="#EDCAB4" d="M496.738,171.582c-6.102-5.006-12.617-4.387-19.953-2.717c-3.67,0.838-7.123,2.225-10.434,4.006
			c-1.67,0.9-5.043,3.289-6.67,0.707c-0.584-0.924-1.572-2.914-1.342-4.041c0.037-0.188-0.17-0.199-0.283-0.123
			c-3.557,2.301-0.967,9.547,3.438,8.139c5.648-1.795,10.396-4.947,16.295-6.295c6.07-1.385,12.84-2.105,18.525,0.834
			C496.537,172.207,496.959,171.76,496.738,171.582z"/>
		<g>
			<g>
				<g>
					<path fill="#351717" d="M494.428,165.57c-1.521-1.293-3.68-2.812-5.045-3.266c-1.717-0.764-6.943-0.596-12.682,0.23
						c-1.014,0.256-2.031,0.49-3.037,0.775c-3.822,1.08-7.834,2.113-11.406,3.879c-1.439,0.717-2.82,1.564-4.291,2.201
						c0.053,1.186,0.266,3.535,0.363,4.084c-0.059-0.066-0.127-0.125-0.18-0.191c-0.324-0.408-0.693-0.967-1.121-1.33
						c0.109,1.004,0.352,2.008,0.766,2.887c0.789,0.559,1.621,1.18,2.523,1.555c7.504-4.395,15.742-8.125,24.883-7.406
						c5.369,0.424,9.512,1.312,13.363,4.256c0.119-0.117,0.254-0.217,0.379-0.328C498.709,170.457,496.252,167.59,494.428,165.57z"
						/>
				</g>
			</g>
			<g>
				<g>
					<path fill="#521D14" d="M498.918,172.719c-7.584-6.002-17.07-8.18-26.059-5.098c-4.588,1.568-8.58,4.145-12.912,6.299
						c-0.816,0.408-1.652,0.434-2.443,0.221c0.082,0.248,0.191,0.477,0.299,0.709c0.787,0.553,1.615,1.172,2.516,1.545
						c7.504-4.395,15.742-8.125,24.883-7.406c5.369,0.424,9.512,1.312,13.363,4.256c0.119-0.117,0.252-0.223,0.379-0.328
						C498.938,172.852,498.926,172.787,498.918,172.719z"/>
				</g>
			</g>
		</g>
	</g>
	<g>
		<path fill="#EDCAB4" d="M439.053,213.361c-0.58-0.092-1.158-0.158-1.736-0.219c2.578,2.602,4.154,6.451,7.617,7.951
			c6.523,2.828,8.721-4.5,10.986-8.883c-2.973,0.789-7.436,1.82-10.502,1.941C442.648,214.262,441.746,213.812,439.053,213.361z"/>
		<path fill="#E6B69A" d="M450.594,215.773c2.023-0.844,3.717-2.133,5.318-3.541c0.002-0.012,0.002-0.016,0.008-0.021
			c-2.973,0.789-7.436,1.82-10.502,1.941c-2.77,0.109-3.672-0.34-6.365-0.791c-0.58-0.092-1.158-0.158-1.736-0.219
			c0.332,0.336,0.652,0.695,0.957,1.062C442.15,216.045,446.506,217.482,450.594,215.773z"/>
		<path fill="#9D5322" d="M444.553,214.949c3.494-0.275,6.701-1.135,9.982-2.086c0.027-0.037,0.053-0.068,0.086-0.105
			c0.24-0.307-5.967,0.82-8.834,1.324c-2.666,0.471-5.336-0.828-8-1.041c0.311-6.268,2.16-22.281,2.598-26.404
			c-0.002,0.012-0.01,0.023-0.016,0.035c-1.098,2.438-1.295,4.805-1.689,7.398c-0.316,2.064-2.373,16-2.887,18.332
			c-0.24,1.105,1.719,1.605,1.871,1.537c3.955,2.629,4.977,3.029,8.129,3.109c2.582,0.072,4.408,0.438,7.309-2.545
			c-1.617,1.016-2.623,2.156-8.465,1.629c-0.471-0.045-3.928-1.057-3.893-1.393C440.777,214.484,444.191,214.977,444.553,214.949z"
			/>
		<path fill="#F7E9E2" d="M441.047,186.43c-0.896,8.125-3.467,17.301-2.082,25.451c0.184,1.094,3.818,1.646,3.746,0.506
			c-0.529-8.184-1.229-17.717-1.154-25.926C441.564,186.193,441.074,186.16,441.047,186.43z"/>
	</g>
	<g>
		<path fill="#EDCAB4" d="M396.855,184.787c2.203,1.205,4.334,3.484,8.6,5.188c3.615,1.447,6.375,1.914,10.268,2.168
			c5.383,0.355,10.832,0,15.717-2.135c-0.131-0.547-0.428-1.168-0.68-1.658c-0.963-3.521-2.398-6.709-4.516-9.23
			c-5.133-4.508-11.701-6.828-18.816-5.23c-2.541,0.572-4.377,1.289-5.883,3.369c-1.832,2.516-1.598,3.607-2.273,6.324
			C399.129,184.145,398.158,184.4,396.855,184.787z M400.914,183.922c0.07-0.289-0.109-0.648-0.361-0.924
			c1.246-2.842,3.201-5.738,5.812-6.662c3.4-1.207,7.24-0.998,10.732-0.26c6.295,1.328,9.111,5.301,11.799,10.225
			c0.217,2.607-0.701,2.996-3.414,3.275c-2.781,0.285-5.602,0.496-8.402,0.348c-1.725-0.098-10.533-1.059-14.393-3.318
			c-0.018-0.051-0.02-0.098-0.053-0.158c-0.258-0.514-1.553-1.602-1.723-2.268C400.92,184.094,400.893,184.008,400.914,183.922z"/>
		<g>
			<path fill="#653719" d="M399.766,184.127c3.352,5.414,11.17,6.641,15.482,6.887c2.672,0.154,11.656-1,13.336-1.547
				c0.047-0.025,0.088-0.051,0.129-0.086c0.492-0.324,0.68-0.74,0.697-1.191c0.104,0.16,0.738,0.652,0.627,0.42
				c-1.008-2.148-1.73-4.441-2.943-6.508c-2.186-3.73-7.275-6.344-11.684-7.215c-1.01-0.201-2.037-0.354-3.092-0.438
				c-3.525-0.283-7.404,0.123-9.689,2.955C401.387,178.949,400.139,182.094,399.766,184.127z"/>
			<path fill="#FFFFFF" d="M401.148,183.727c1.648-4.268,3.113-8.232,8.988-8.328c4.645-0.076,11.021,1.787,14.67,4.951
				c0.799,0.904,4.514,6.785,3.355,7.846c-0.467,0.426-2.488,1.082-2.939,1.186c-2.648,0.652-5.684,0.705-8.418,0.771
				C411.678,190.271,403.328,189.146,401.148,183.727z"/>
		</g>
		<g>
			<defs>
				<path id="SVGID_5_" d="M401.148,183.727c1.648-4.268,3.113-8.232,8.988-8.328c4.645-0.076,11.021,1.787,14.67,4.951
					c0.799,0.904,4.514,6.785,3.355,7.846c-0.467,0.426-2.488,1.082-2.939,1.186c-2.648,0.652-5.684,0.705-8.418,0.771
					C411.678,190.271,403.328,189.146,401.148,183.727z"/>
			</defs>
			<clipPath id="SVGID_6_">
				<use xlink:href="#SVGID_5_"  overflow="visible"/>
			</clipPath>
			<g clip-path="url(#SVGID_6_)">
				<g>
					<path fill="#1F1111" d="M422.064,183.391c0,5.127-3.139,9.287-7.016,9.287s-7.014-4.16-7.014-9.287
						c0-5.125,3.137-9.279,7.014-9.279S422.064,178.266,422.064,183.391z"/>
					<path fill="#521D14" d="M415.049,174.752c-3.541,0-6.418,3.801-6.418,8.492c0,4.689,2.877,8.492,6.418,8.492
						c3.547,0,6.418-3.803,6.418-8.492C421.467,178.553,418.596,174.752,415.049,174.752z"/>
					<path fill="#080509" d="M419.396,182.883c0,3.232-1.979,5.854-4.428,5.854c-2.441,0-4.426-2.621-4.426-5.854
						s1.984-5.854,4.426-5.854C417.418,177.029,419.396,179.65,419.396,182.883z"/>
					<path fill="#FFF9E3" d="M413.289,179.43c-0.314,1.441-1.301,2.453-2.188,2.252c-0.891-0.189-1.354-1.521-1.037-2.963
						s1.297-2.451,2.188-2.256C413.141,176.66,413.605,177.988,413.289,179.43z"/>
					<path fill="#804B23" d="M418.549,187.555c-4.195,4.506-8.314,1.008-8.516-4.229c-0.004-0.141-0.939,0.699-0.93,0.803
						c0.195,2.895,1.369,5.504,4.145,6.705c2.395,1.039,4.572-0.48,5.891-2.334C419.246,188.348,418.658,187.438,418.549,187.555z"
						/>
				</g>
				<path fill="#804B23" d="M420.014,180.467c0,0,0.756,3.355-0.9,6.262l0.619,0.369
					C419.732,187.098,421.828,184.428,420.014,180.467z"/>
			</g>
		</g>
	</g>
	<g>
		<path fill="#EDCAB4" d="M433.699,170.275c-1.135-0.842-3.271,1.18-2.242,2.236c-0.049,2.09-0.709,2.43-1.973,1.02
			c-0.51-0.352-1.049-0.662-1.607-0.938c-1.734-0.982-3.471-1.838-5.305-2.615c-3.729-1.58-7.615-2.389-11.646-2.547
			c-4.055-0.16-8.123,0.854-12.041,1.758c-2.592,0.6-5.418,1.465-7.303,3.418c-0.15,0.154-0.34,0.494-0.137,0.689
			c0.02,0.016,0.037,0.035,0.057,0.051c0.102,0.1,0.262,0.086,0.385,0.031c0.062-0.029,0.127-0.059,0.189-0.09
			c0.121-0.053,0.271-0.188,0.279-0.33c0.002-0.037,0.006-0.074,0.008-0.109c0.01-0.094-0.039-0.176-0.146-0.15
			c5.008-1.129,10.805-2.143,15.965-2.445c6.297-0.367,12.484,1.906,17.857,5.008c2.137,1.232,4.807,3.541,7.125,1.234
			C434.875,174.791,436.006,171.982,433.699,170.275z"/>
		<g>
			<g>
				<g>
					<path fill="#351717" d="M396.348,165.57c1.52-1.293,3.672-2.812,5.043-3.266c1.715-0.764,6.939-0.596,12.682,0.23
						c1.012,0.256,2.029,0.49,3.033,0.775c3.822,1.08,7.838,2.113,11.404,3.879c1.441,0.717,2.822,1.564,4.291,2.201
						c-0.049,1.186-0.266,3.535-0.363,4.084c0.061-0.066,0.127-0.125,0.182-0.191c0.324-0.408,0.695-0.967,1.123-1.33
						c-0.109,1.004-0.352,2.008-0.768,2.887c-0.789,0.559-1.621,1.18-2.525,1.555c-7.502-4.395-15.74-8.125-24.879-7.406
						c-5.369,0.424-9.508,1.312-13.365,4.256c-0.121-0.117-0.252-0.217-0.377-0.328C392.062,170.457,394.514,167.59,396.348,165.57z
						"/>
				</g>
			</g>
			<g>
				<g>
					<path fill="#521D14" d="M391.854,172.719c7.582-6.002,17.068-8.18,26.061-5.098c4.586,1.568,8.574,4.145,12.908,6.299
						c0.82,0.408,1.654,0.434,2.447,0.221c-0.086,0.248-0.195,0.477-0.305,0.709c-0.787,0.553-1.615,1.172-2.516,1.545
						c-7.502-4.395-15.74-8.125-24.879-7.406c-5.369,0.424-9.508,1.312-13.365,4.256c-0.121-0.117-0.25-0.223-0.377-0.328
						C391.834,172.852,391.846,172.787,391.854,172.719z"/>
				</g>
			</g>
		</g>
	</g>
	<g>
		<g>
			<path fill="#EDC9B2" d="M474.152,225.182c0.162,0.891,0.049,1.738-0.848,2.139c-0.662,0.742-1.73,1.303-3.398,1.65
				c-7.277,1.506-15.033,0.125-22.295-0.787c-3.777-0.479-7.377-0.742-11.148-0.158c-1.643,0.312-4.982,1.156-8.287,1.533
				c-1.045,0.182-2.094,0.338-3.154,0.441c-1.252,0.119-2.211,0.014-2.992-0.287c-1.504-0.16-2.758-0.654-3.457-1.689
				c-0.359,0.707-0.438,1.473,0.133,2.355c0.49,0.762,1.121,1.375,1.838,1.91c1.207,0.16,2.549,0.154,3.443,1.322
				c1.373,1.795,3.393,4.807,4.631,7.271c6.137,7.215,19.242,8.492,27.729,5.404c6.277-2.287,8.93-6.064,12.104-11.168
				c0.516-0.832,1.07-1.584,1.654-2.277C473.172,227.434,476.439,229.383,474.152,225.182z"/>
			<path fill="#9D4E21" d="M473.955,224.402c0.4,1.258,0.535,2.666-1.064,3.062c-0.641,0.156-1.291,0.248-1.943,0.326
				c-1.846,0.436-3.789,0.547-5.705,0.766c-4.021,0.451-8.098,0.367-12.137,0.32c-5.75-0.059-11.746-1.762-17.428-0.65
				c-0.523,0.027-1.043,0.061-1.568,0.102c-3.004,0.686-6.004,1.377-9.088,1.672c-1.252,0.119-2.209,0.014-2.992-0.287
				c-1.439-0.156-2.648-0.615-3.363-1.566c0.883,2.365,2.42,3.021,4.68,3.072c3.914,3.359,5.174,9.111,10.088,11.416
				c4.691,2.199,10.613,3.361,15.885,3.172c4.555-0.158,9.395-1.707,12.781-4.51c1.758-1.455,2.703-3.34,3.617-5.279
				c1.559-3.297,3.48-5.1,6.586-7.195c0.033-0.021,0.041-0.055,0.062-0.084c0.455-0.164,0.92-0.32,1.34-0.518
				c0.225-0.012,0.443-0.088,0.609-0.242c0.014-0.014,0.016-0.029,0.029-0.039l0.012-0.002c0.217-0.119,0.314-0.289,0.352-0.473
				C475.254,226.459,474.848,225.162,473.955,224.402z M464.627,235.625c-2.633,5.572-7.061,8.236-13.67,8.809
				c-5.246,0.457-11.203-0.787-16.041-2.521c-5.248-1.881-6.652-7.623-10.914-10.682c0.385-0.01,0.795-0.031,1.217-0.062
				c5.736-0.41,11.107-2.646,16.955-2.789c0.047,0,0.068-0.037,0.061-0.072c4.51,0.406,9.121,1.49,13.473,1.693
				c3.861,0.176,8.889,0.389,13.273-0.381C466.928,231.057,465.637,233.498,464.627,235.625z"/>
			<path fill="#8C1F1C" d="M464.627,235.625c-2.633,5.572-7.061,8.236-13.67,8.809c-5.246,0.457-11.203-0.787-16.041-2.521
				c-5.248-1.881-6.652-7.623-10.914-10.682c0.385-0.01,0.795-0.031,1.217-0.062c5.736-0.41,11.107-2.646,16.955-2.789
				c0.047,0,0.068-0.037,0.061-0.072c4.51,0.406,9.121,1.49,13.473,1.693c3.861,0.176,8.889,0.389,13.273-0.381
				C466.928,231.057,465.637,233.498,464.627,235.625z"/>
			<path fill="#FFFFFF" d="M463.209,233.152c0.84-0.984,1.605-2.029,2.287-3.121c-3.408,0.25-6.92,0.104-9.789-0.031
				c-4.352-0.203-8.963-1.287-13.473-1.693c0.008,0.035-0.014,0.072-0.061,0.072c-4.438,0.111-8.6,1.42-12.859,2.223
				c1.146,2.258,2.404,4.002,5.834,4.699c3.273,0.668,6.508,1.41,9.877,1.594c4.09,0.225,8.045-0.09,11.924-0.844
				C459.234,235.404,461.434,234.535,463.209,233.152z"/>
			<path opacity="0.6" fill="#B7A997" d="M459.887,232.766c-0.477,1.234-1.266,2.24-2.254,3.084
				c2.035-0.625,3.975-1.453,5.576-2.697c0.84-0.984,1.605-2.029,2.287-3.121c-3.408,0.25-6.92,0.104-9.789-0.031
				c-4.352-0.203-8.963-1.287-13.473-1.693c0.008,0.035-0.014,0.072-0.061,0.072c-4.438,0.111-8.6,1.42-12.859,2.223
				c0.102,0.205,0.205,0.398,0.312,0.594c4.539-0.363,8.953-1.396,13.568-1.182c5.406,0.254,10.729,1.082,16.074,1.824
				C459.768,231.902,460.057,232.334,459.887,232.766z"/>
			<path fill="#D27360" d="M449.123,240.1c-5.127-0.549-9.25,0.25-13.332,2.107c4.678,1.57,10.227,2.652,15.166,2.227
				c2.383-0.205,4.471-0.695,6.299-1.484C454.814,241.514,452.156,240.432,449.123,240.1z"/>
		</g>
		<path fill="#9D4E21" d="M437.703,250.914c4.266,3.838,11.814,3.926,16.268,0.549c0.158-0.123,0.277-0.318,0.328-0.51
			C448.631,252.244,443.047,252.803,437.703,250.914z"/>
	</g>
	<g>
		<path fill="#EDCAB4" d="M492.592,183.721c-0.674-2.713-0.443-3.805-2.273-6.322c-1.51-2.074-3.344-2.799-5.879-3.367
			c-7.115-1.596-13.689,0.725-18.818,5.23c-2.121,2.52-3.557,5.711-4.518,9.232c-0.256,0.484-0.553,1.107-0.684,1.658
			c4.883,2.131,10.34,2.49,15.719,2.137c3.893-0.26,6.654-0.725,10.268-2.172c4.268-1.707,6.396-3.982,8.6-5.186
			C493.705,184.545,492.732,184.291,492.592,183.721z M490.951,184.324c-0.174,0.664-1.465,1.752-1.723,2.266
			c-0.029,0.059-0.037,0.107-0.055,0.156c-3.859,2.258-12.664,3.227-14.393,3.32c-2.801,0.15-5.623-0.061-8.404-0.35
			c-2.707-0.277-3.633-0.664-3.414-3.273c2.688-4.924,5.508-8.895,11.801-10.229c3.498-0.734,7.336-0.939,10.73,0.262
			c2.615,0.924,4.566,3.824,5.814,6.66c-0.252,0.279-0.432,0.639-0.359,0.926C490.969,184.154,490.945,184.232,490.951,184.324z"/>
		<g>
			<g>
				<path fill="#653719" d="M488.893,177.404c-2.287-2.832-6.164-3.238-9.693-2.955c-1.053,0.084-2.08,0.236-3.088,0.438
					c-4.408,0.871-9.5,3.484-11.689,7.215c-1.213,2.066-1.932,4.359-2.943,6.508c-0.109,0.232,0.529-0.26,0.631-0.42
					c0.016,0.451,0.205,0.867,0.691,1.191c0.047,0.035,0.088,0.061,0.135,0.086c1.682,0.547,10.662,1.701,13.334,1.547
					c4.312-0.246,12.131-1.473,15.482-6.887C491.379,182.094,490.131,178.949,488.893,177.404z"/>
				<path fill="#FFFFFF" d="M474.717,190.152c-2.74-0.066-5.771-0.119-8.424-0.771c-0.451-0.104-2.473-0.76-2.936-1.186
					c-1.16-1.061,2.553-6.941,3.352-7.846c3.652-3.164,10.029-5.027,14.674-4.951c5.873,0.096,7.344,4.061,8.992,8.328
					C488.189,189.146,479.844,190.271,474.717,190.152z"/>
			</g>
			<g>
				<defs>
					<path id="SVGID_7_" d="M474.717,190.152c-2.74-0.066-5.771-0.119-8.424-0.771c-0.451-0.104-2.473-0.76-2.936-1.186
						c-1.16-1.061,2.553-6.941,3.352-7.846c3.652-3.164,10.029-5.027,14.674-4.951c5.873,0.096,7.344,4.061,8.992,8.328
						C488.189,189.146,479.844,190.271,474.717,190.152z"/>
				</defs>
				<clipPath id="SVGID_8_">
					<use xlink:href="#SVGID_7_"  overflow="visible"/>
				</clipPath>
				<g clip-path="url(#SVGID_8_)">
					<g>
						<path fill="#1F1111" d="M483.488,183.391c0,5.127-3.145,9.287-7.021,9.287c-3.873,0-7.014-4.16-7.014-9.287
							c0-5.125,3.141-9.279,7.014-9.279C480.344,174.111,483.488,178.266,483.488,183.391z"/>
						<ellipse fill="#521D14" cx="476.467" cy="183.244" rx="6.418" ry="8.492"/>
						<ellipse fill="#080509" cx="476.39" cy="182.883" rx="4.427" ry="5.854"/>
						<path fill="#FFF9E3" d="M474.707,179.43c-0.316,1.441-1.299,2.453-2.188,2.252c-0.889-0.189-1.352-1.521-1.039-2.963
							c0.32-1.441,1.297-2.451,2.189-2.256C474.562,176.66,475.023,177.988,474.707,179.43z"/>
						<path fill="#804B23" d="M479.967,187.555c-4.195,4.506-8.316,1.008-8.512-4.229c-0.008-0.141-0.938,0.699-0.932,0.803
							c0.197,2.895,1.367,5.504,4.145,6.705c2.395,1.039,4.572-0.48,5.889-2.334C480.662,188.348,480.078,187.438,479.967,187.555z"
							/>
					</g>
					<path fill="#804B23" d="M481.436,180.467c0,0,0.754,3.355-0.904,6.262l0.621,0.369
						C481.152,187.098,483.248,184.428,481.436,180.467z"/>
				</g>
			</g>
		</g>
	</g>
	<path fill="#F7E9E2" d="M445.721,226.502c-2.863-0.486-5.713-0.783-8.762-0.443c-1.982,0.225-4.191,0.779-6.438,1.244
		c-0.887,0.215-1.779,0.416-2.695,0.592c-2.752,0.521-5.477,0.762-7.908-0.355c2.416,3.123,6.393,1.436,9.756,0.719
		c3.801-0.805,7.637-1.607,11.537-1.615c3.363-0.004,6.705,0.947,10.057,1.223C449.414,227.416,447.568,226.932,445.721,226.502z"/>
	<path fill="#F7E9E2" d="M450.33,248.812c-5.066,0.316-10.191,0.23-14.91-1.902c-0.197-0.086-0.535,0.258-0.361,0.43
		c3.967,3.93,10.125,4.123,15.123,2.227C450.41,249.482,450.801,248.781,450.33,248.812z"/>
	<path fill-rule="evenodd" clip-rule="evenodd" fill="#521D14" d="M395.061,121.316c0,0,7.357-6.037,11.99-6.037
		c0,0,21.363,11.953,31.896,12.852c0,0-2.166-4.225,0-8.828c0,0,52.217,2.875,65.07,22.717c0,0,0.992-20.99-23.598-27.891
		c0,0,19.326,2.014,19.441-7.762c0,0-22.777-2.299-16.234-11.787c0,0-22.195-0.074-18.064-10.961c0.17-0.449,0.385-0.916,0.648-1.4
		c6.645-12.281-31.037,6.609-31.037,6.609s-16.346,5.178-13.785,12.652C421.389,101.48,399.965,93.141,395.061,121.316z"/>
	<g>
		<g>
			<g>
				<path fill="#D6D3DC" d="M587.1,513.359c0,11.891-9.125,21.695-16.547,21.695H295.68c-7.436,0-16.539-9.805-16.539-21.695H587.1z
					"/>
			</g>
		</g>
		<path fill="#9491A4" d="M586.918,516.064c-0.434,3.891-1.826,7.443-3.746,10.42H283.047c-1.92-2.977-3.297-6.545-3.746-10.42
			H586.918z"/>
	</g>
	<path opacity="0.4" fill="#B2B2BA" d="M587.09,513.359c0,0.916-0.045,1.826-0.172,2.705c-0.434,3.891-1.826,7.443-3.746,10.42
		c-3.328,5.186-8.275,8.562-12.629,8.562h-58.221c4.354,0,9.283-3.377,12.625-8.562c1.922-2.977,3.299-6.529,3.746-10.42
		c0.111-0.879,0.16-1.789,0.16-2.705H587.09z"/>
	<path fill="#3E3947" d="M545.191,523.473c0,1.094-0.895,1.992-1.996,1.992h-5.09c-1.096,0-1.992-0.898-1.992-1.992v-1.773
		c0-1.094,0.896-1.988,1.992-1.988h5.09c1.102,0,1.996,0.895,1.996,1.988V523.473z"/>
	<path fill="#3E3947" d="M560.465,523.473c0,1.094-0.895,1.992-1.992,1.992h-5.088c-1.098,0-1.992-0.898-1.992-1.992v-1.773
		c0-1.094,0.895-1.988,1.992-1.988h5.088c1.098,0,1.992,0.895,1.992,1.988V523.473z"/>
	<path fill="#D6D3DC" d="M525.365,521.283H282.582c-3.631,0-6.883-2.926-7.266-6.529l-20.484-187.27
		c-0.4-3.619,2.209-6.561,5.84-6.561h242.783c3.602,0,6.85,2.941,7.236,6.561l20.484,187.27
		C531.572,518.357,528.967,521.283,525.365,521.283z"/>
	<path opacity="0.4" fill="#B2B2BA" d="M525.365,521.283H424.447l17.42-0.018C413.445,402.027,300.41,320.924,300.41,320.924
		h203.045c3.602,0,6.85,2.941,7.236,6.561l20.484,187.27C531.572,518.357,528.967,521.283,525.365,521.283z"/>
	<g>
		<path fill="#3E3947" d="M388.611,431.828h-19.984v-27.154h8.654v20.578h12.156L388.611,431.828z"/>
		<path fill="#3E3947" d="M424.398,444.676H415.9l-1.039-15.27l-7.615,15.27h-0.924l-7.385-15.27l-1.076,15.27h-8.385l3.039-27.156
			h8.574l5.732,13.422l5.924-13.422h8.539L424.398,444.676z"/>
	</g>
</g>
</svg>
