<?xml version="1.0" encoding="utf-8"?>
<!-- Generator: Adobe Illustrator 16.0.0, SVG Export Plug-In . SVG Version: 6.00 Build 0)  -->
<!DOCTYPE svg PUBLIC "-//W3C//DTD SVG 1.1//EN" "http://www.w3.org/Graphics/SVG/1.1/DTD/svg11.dtd">
<svg version="1.1" id="Livello_1" xmlns="http://www.w3.org/2000/svg" xmlns:xlink="http://www.w3.org/1999/xlink" x="0px" y="0px"
	 width="840.385px" height="594.266px" viewBox="0 0 840.385 594.266" enable-background="new 0 0 840.385 594.266"
	 xml:space="preserve">
<rect x="-910.455" width="840.384" height="594.266"/>
<g>
	<path fill="#BC7950" d="M-531.787,346.992c2.76,5.506,10.721,5.744,17.189,3.998c-1.252-8.082-2.684-16.098-4.494-24.074
		C-526.57,327.156-536.394,339.072-531.787,346.992z"/>
	<path fill="#F9A877" d="M-508.644,446.229c1.492,0.666,2.984,1.307,4.412,1.838c1.381,0.49,2.695,0.963,4.031,1.322
		c6.062,1.742,11.81,2.279,17.298,1.686c0.963-0.072,1.879-0.127,2.824-0.361c0.354-0.121,0.787-0.168,1.154-0.307
		c-8.76-10.123-13.673-25.219-14.218-42.471c-0.896-17.275-0.77-34.695,0.305-52.092l-1.252,0.6
		c-4.863,1.084-9.342,0.252-13.979,0.252c-1.797,0-3.643,0.111-5.504,0.529c-0.303-2.096-0.658-4.197-1.025-6.234
		c-6.469,1.746-14.43,1.508-17.189-3.998c-4.607-7.92,5.217-19.836,12.695-20.076c-0.227-1.252-0.482-2.463-0.773-3.668
		l-1.906,0.434c-3.982-18.285-25.84-3.973-26.545,11.795c-0.723,11.252,2.264,28.48,12.758,35.236
		c4.479,2.871,10.305,3.963,15.021,2.471c-2.697,14.852-9.324,35.707-22.34,45.287c3.113,3.838,6.482,7.553,9.951,10.971
		c1.797,1.604,3.529,3.162,5.281,4.615c4.732,3.898,9.338,7.051,13.896,9.588C-512.078,444.59-510.328,445.441-508.644,446.229z"/>
	<path fill="#FFCA9F" d="M-485.115,294.074c-3.771,19.947-6.404,40.553-7.671,61.238c0.08,0.131,0.143,0.307,0.189,0.418
		l-0.24,0.113c-1.074,17.396-1.201,34.816-0.305,52.092c0.545,17.252,5.458,32.348,14.218,42.471
		c23.85-6.578,45.77-24.014,52.977-56.988c-0.145,0-0.369,0-0.609,0c-0.611,0-1.557,0-2.633-0.174
		c-3.547-0.225-8.826-1.324-11.266-4.318c-1.926-2.262-3.658-5.078-5.168-8.609c0,0.111-0.062,0.225-0.062,0.338
		c-2.635-4.977-5.137-9.645-5.555-15.328c0.529,0.846,1.189,1.559,1.846,2.273c0-0.121-0.047-0.242-0.047-0.369
		c5.553,6.354,16.705,7.559,26.254,7.133c1.109,0,2.264-0.064,3.324-0.176c1.461-4.613,2.709-9.285,3.852-14.148
		c0.416-1.598,0.77-3.289,1.135-4.967c1.08-0.416,2.264-0.953,3.486-1.443c-4.271-9.941,15.584-25.148,22.646-21.625h0.16
		c0.078-0.307,0.078-0.65,0.078-1.021c-12.404-5.504-18.471-21.688-18.809-35.359c0-1.254,0-2.449,0.064-3.596
		c0.273-11.611,0-23.238-1.027-34.514c-13.801,1.074-26.975,2.568-40.893,2.568C-475.15,261.109-481.17,268.066-485.115,294.074z
		 M-413.381,349.561c0.129,0,0.242-0.066,0.307-0.066c-0.178,0.547-0.371,1.084-0.547,1.496
		C-413.574,350.578-413.445,350.096-413.381,349.561z"/>
	<path fill="#4E230C" d="M-492.787,355.312c-0.051,0.186-0.051,0.363-0.051,0.531l0.24-0.113
		C-492.644,355.619-492.707,355.443-492.787,355.312z"/>
	<path fill="#F9A877" d="M-429.189,247.098c-11.988-0.969-23.975-3.969-35.979-4.973c-9.982,0-21.984,2.982-30.974-1.029
		c0.066,0.242,0.207,0.475,0.256,0.723c0.963,2.928,1.541,5.881,1.848,8.867c0.303,3.715,0.174,7.494-0.355,11.275
		c-1.025,7.848-3.785,15.574-7.012,22.707l0.289,0.113c-0.822,3.705-1.318,7.855-1.494,12.35
		c-0.898,18.873,3.293,43.139,9.824,58.182c1.268-20.686,3.9-41.291,7.671-61.238c3.945-26.008,9.965-32.965,35.945-33.992
		c13.918,0,27.092-1.494,40.893-2.568c-0.24-3.588-0.609-7.18-1.109-10.719C-416.334,247.203-423.025,247.322-429.189,247.098z"/>
	<path fill="#41210F" d="M-395.762,187.422c-27.811,3.59-55.557,5.201-83.354,6.75c9.951,8.994,23.979,16.016,36.91,19.01
		c-22.963,2.984-47.935,0.953-71.912,1.973c-20.975,1.012-45.898,5.979-66.857-1.973c20.539,20.549,57.275,23.848,85.088,28.637
		c-0.049-0.248-0.189-0.48-0.256-0.723c8.99,4.012,20.992,1.029,30.974,1.029c12.004,1.004,23.99,4.004,35.979,4.973
		c6.164,0.225,12.855,0.105,19.803-0.303c20.959-1.389,43.814-5.883,61.084-12.646c-0.738,0.062-1.508,0.062-2.217,0.062
		c-11.027,0-25.9-5.287-37.09-9.717c0.064-0.715,0-1.436,0-2.148c11.334-0.057,23.193-2.648,34.328-5.209
		c-17.766,2.754-29.014-10.92-38.752-24.576c-0.547-1.871-1.158-3.645-1.803-5.459c-0.658-1.859-1.395-3.658-2.166-5.385
		c-1.072,0.234-2.148,0.539-3.24,0.844C-398.086,184.109-396.914,185.721-395.762,187.422z"/>
	<path fill="#F9A877" d="M-411.391,353.629c9.758-4.303,22.58-11.604,22.807-21.625h-0.16
		C-395.807,328.48-415.662,343.688-411.391,353.629z"/>
	<path fill="#F9A877" d="M-413.381,349.561c-0.064,0.535-0.193,1.018-0.24,1.43c0.176-0.412,0.369-0.949,0.547-1.496
		C-413.139,349.494-413.252,349.561-413.381,349.561z"/>
	<path fill="#FFFFFF" d="M-449.441,367.23c0,0.127,0.047,0.248,0.047,0.369c1.557,1.676,3.354,3.057,5.443,4.197
		c-0.418,0.953-0.822,2.027-1.189,3.16c0.883,0.842,1.799,1.812,2.693,2.545c3.373,2.623,7.498,3.754,11.525,4.42
		c0,0,0.158,0,0.4,0.055c-0.109,0-0.305,0-0.4,0c-3.787-0.279-11.09-1.266-14.939-4.613c-0.42,1.508,0.238,1.791,0.238,2.953
		c1.51,3.531,3.242,6.348,5.168,8.609c2.439,2.994,7.719,4.094,11.266,4.318c1.076,0.174,2.021,0.174,2.633,0.174
		c2.502-6.104,4.752-12.514,6.693-19.23c-1.061,0.111-2.215,0.176-3.324,0.176C-432.736,374.789-443.889,373.584-449.441,367.23z"/>
	<path fill="#4D2902" d="M-445.861,377.363c3.85,3.348,11.152,4.334,14.939,4.613c0.096,0,0.291,0,0.4,0
		c-0.242-0.055-0.4-0.055-0.4-0.055c-4.027-0.666-8.152-1.797-11.525-4.42c-0.895-0.732-1.811-1.703-2.693-2.545
		c0.367-1.133,0.771-2.207,1.189-3.16c-2.09-1.141-3.887-2.521-5.443-4.197c-0.656-0.715-1.316-1.428-1.846-2.273
		c0.418,5.684,2.92,10.352,5.555,15.328c0-0.113,0.062-0.227,0.062-0.338C-445.623,379.154-446.281,378.871-445.861,377.363z"/>
	<path fill="#2F0B00" d="M-395.762,187.434c-1.15-1.697-2.328-3.32-3.475-4.861c1.098-0.312,2.17-0.627,3.236-0.861
		c-7.916-17.664-22-31.855-44.996-38.83c-37.889-12.049-80.955-5.176-119.445,10.766c0,0-0.053,0.027-0.131,0.051
		c-1.096,0.445-2.195,0.916-3.293,1.412c-0.025,0.025-0.053,0.025-0.105,0.053c-9.408,4.703-34.805,22.08-40.24,73.977
		l15.678,122.582c0.525,1.436,1.074,2.873,1.543,4.258c8.988,23.963,25.973,42.961,34.961,66.949
		c3.346-0.863,6.404-2.404,9.146-4.471c13.016-9.562,19.652-30.416,22.344-45.285c-4.705,1.516-10.531,0.418-15.025-2.453
		c-10.477-6.771-13.482-23.99-12.752-35.254c0.705-15.756,22.551-30.076,26.547-11.785l1.91-0.443
		c0.287,1.229,0.549,2.43,0.756,3.684c1.832,7.973,3.242,15.994,4.494,24.066c0.367,2.041,0.734,4.131,1.045,6.246
		c1.857-0.418,3.688-0.547,5.49-0.547c4.648,0,9.121,0.834,13.98-0.236l1.254-0.602c0-0.182,0-0.34,0.053-0.521
		c-6.531-15.053-10.715-39.326-9.826-58.195c0.184-4.494,0.68-8.648,1.49-12.359l-0.289-0.104
		c3.242-7.135,5.986-14.869,7.031-22.711c0.521-3.785,0.654-7.551,0.34-11.26c-0.316-3.006-0.889-5.959-1.857-8.887
		c-27.805-4.781-64.543-8.074-85.082-28.639c20.957,7.969,45.889,3.006,66.867,1.986c23.965-1.02,48.947,1.02,71.916-1.986
		c-12.936-2.979-26.967-10.008-36.924-18.996C-451.316,192.635-423.566,191.012-395.762,187.434z"/>
	<path fill="#F89A64" d="M-482.902,451.074c-5.488,0.594-11.236,0.057-17.298-1.686c-1.336-0.359-2.65-0.832-4.031-1.322
		c-1.428-0.531-2.92-1.172-4.412-1.838c-1.684-0.787-3.434-1.639-5.104-2.584c-4.559-2.537-9.164-5.689-13.896-9.588
		c0.637,6.23,3.074,40.482,3.074,40.482h41.679C-482.891,474.539-482.998,455.768-482.902,451.074z"/>
	<path fill="#EFC87E" d="M-305.758,95.785h-369.009c-7.18,0-13.016,5.832-13.016,13.014v376.664c0,7.18,5.836,13.016,13.016,13.016
		h369.009c7.184,0,13.016-5.836,13.016-13.016V108.799C-292.742,101.617-298.574,95.785-305.758,95.785z M-324.146,455.514
		c0,6.051-4.9,10.947-10.949,10.947h-310.333c-6.049,0-10.949-4.896-10.949-10.947V138.748c0-6.047,4.9-10.947,10.949-10.947
		h310.333c6.049,0,10.949,4.9,10.949,10.947V455.514z"/>
</g>
<rect fill="#FFFFFF" width="840.385" height="594.266"/>
<g>
	<path fill="#BC7950" d="M378.668,346.992c2.76,5.506,10.721,5.744,17.189,3.998c-1.252-8.082-2.684-16.098-4.494-24.074
		C383.885,327.156,374.061,339.072,378.668,346.992z"/>
	<path fill="#F9A877" d="M401.811,446.229c1.492,0.666,2.984,1.307,4.412,1.838c1.381,0.49,2.695,0.963,4.031,1.322
		c6.062,1.742,11.811,2.279,17.299,1.686c0.963-0.072,1.879-0.127,2.824-0.361c0.354-0.121,0.787-0.168,1.154-0.307
		c-8.76-10.123-13.674-25.219-14.219-42.471c-0.896-17.275-0.77-34.695,0.305-52.092l-1.252,0.6
		c-4.863,1.084-9.342,0.252-13.979,0.252c-1.797,0-3.643,0.111-5.504,0.529c-0.303-2.096-0.658-4.197-1.025-6.234
		c-6.469,1.746-14.43,1.508-17.189-3.998c-4.607-7.92,5.217-19.836,12.695-20.076c-0.227-1.252-0.482-2.463-0.773-3.668
		l-1.906,0.434c-3.982-18.285-25.84-3.973-26.545,11.795c-0.723,11.252,2.264,28.48,12.758,35.236
		c4.479,2.871,10.305,3.963,15.021,2.471c-2.697,14.852-9.324,35.707-22.34,45.287c3.113,3.838,6.482,7.553,9.951,10.971
		c1.797,1.604,3.529,3.162,5.281,4.615c4.732,3.898,9.338,7.051,13.896,9.588C398.377,444.59,400.127,445.441,401.811,446.229z"/>
	<path fill="#FFCA9F" d="M425.34,294.074c-3.771,19.947-6.404,40.553-7.672,61.238c0.08,0.131,0.143,0.307,0.189,0.418l-0.24,0.113
		c-1.074,17.396-1.201,34.816-0.305,52.092c0.545,17.252,5.459,32.348,14.219,42.471c23.85-6.578,45.77-24.014,52.977-56.988
		c-0.145,0-0.369,0-0.609,0c-0.611,0-1.557,0-2.633-0.174c-3.547-0.225-8.826-1.324-11.266-4.318
		c-1.926-2.262-3.658-5.078-5.168-8.609c0,0.111-0.062,0.225-0.062,0.338c-2.635-4.977-5.137-9.645-5.555-15.328
		c0.529,0.846,1.189,1.559,1.846,2.273c0-0.121-0.047-0.242-0.047-0.369c5.553,6.354,16.705,7.559,26.254,7.133
		c1.109,0,2.264-0.064,3.324-0.176c1.461-4.613,2.709-9.285,3.852-14.148c0.416-1.598,0.77-3.289,1.135-4.967
		c1.08-0.416,2.264-0.953,3.486-1.443c-4.271-9.941,15.584-25.148,22.646-21.625h0.16c0.078-0.307,0.078-0.65,0.078-1.021
		c-12.404-5.504-18.471-21.688-18.809-35.359c0-1.254,0-2.449,0.064-3.596c0.273-11.611,0-23.238-1.027-34.514
		c-13.801,1.074-26.975,2.568-40.893,2.568C435.305,261.109,429.285,268.066,425.34,294.074z M497.074,349.561
		c0.129,0,0.242-0.066,0.307-0.066c-0.178,0.547-0.371,1.084-0.547,1.496C496.881,350.578,497.01,350.096,497.074,349.561z"/>
	<path fill="#4E230C" d="M417.668,355.312c-0.051,0.186-0.051,0.363-0.051,0.531l0.24-0.113
		C417.811,355.619,417.748,355.443,417.668,355.312z"/>
	<path fill="#F9A877" d="M481.266,247.098c-11.988-0.969-23.975-3.969-35.979-4.973c-9.982,0-21.984,2.982-30.975-1.029
		c0.066,0.242,0.207,0.475,0.256,0.723c0.963,2.928,1.541,5.881,1.848,8.867c0.303,3.715,0.174,7.494-0.355,11.275
		c-1.025,7.848-3.785,15.574-7.012,22.707l0.289,0.113c-0.822,3.705-1.318,7.855-1.494,12.35
		c-0.898,18.873,3.293,43.139,9.824,58.182c1.268-20.686,3.9-41.291,7.672-61.238c3.945-26.008,9.965-32.965,35.945-33.992
		c13.918,0,27.092-1.494,40.893-2.568c-0.24-3.588-0.609-7.18-1.109-10.719C494.121,247.203,487.43,247.322,481.266,247.098z"/>
	<path fill="#41210F" d="M514.693,187.422c-27.811,3.59-55.557,5.201-83.354,6.75c9.951,8.994,23.979,16.016,36.91,19.01
		c-22.963,2.984-47.936,0.953-71.912,1.973c-20.975,1.012-45.898,5.979-66.857-1.973c20.539,20.549,57.275,23.848,85.088,28.637
		c-0.049-0.248-0.189-0.48-0.256-0.723c8.99,4.012,20.992,1.029,30.975,1.029c12.004,1.004,23.99,4.004,35.979,4.973
		c6.164,0.225,12.855,0.105,19.803-0.303c20.959-1.389,43.814-5.883,61.084-12.646c-0.738,0.062-1.508,0.062-2.217,0.062
		c-11.027,0-25.9-5.287-37.09-9.717c0.064-0.715,0-1.436,0-2.148c11.334-0.057,23.193-2.648,34.328-5.209
		c-17.766,2.754-29.014-10.92-38.752-24.576c-0.547-1.871-1.158-3.645-1.803-5.459c-0.658-1.859-1.395-3.658-2.166-5.385
		c-1.072,0.234-2.148,0.539-3.24,0.844C512.369,184.109,513.541,185.721,514.693,187.422z"/>
	<path fill="#F9A877" d="M499.064,353.629c9.758-4.303,22.58-11.604,22.807-21.625h-0.16
		C514.648,328.48,494.793,343.688,499.064,353.629z"/>
	<path fill="#F9A877" d="M497.074,349.561c-0.064,0.535-0.193,1.018-0.24,1.43c0.176-0.412,0.369-0.949,0.547-1.496
		C497.316,349.494,497.203,349.561,497.074,349.561z"/>
	<path fill="#FFFFFF" d="M461.014,367.23c0,0.127,0.047,0.248,0.047,0.369c1.557,1.676,3.354,3.057,5.443,4.197
		c-0.418,0.953-0.822,2.027-1.189,3.16c0.883,0.842,1.799,1.812,2.693,2.545c3.373,2.623,7.498,3.754,11.525,4.42
		c0,0,0.158,0,0.4,0.055c-0.109,0-0.305,0-0.4,0c-3.787-0.279-11.09-1.266-14.939-4.613c-0.42,1.508,0.238,1.791,0.238,2.953
		c1.51,3.531,3.242,6.348,5.168,8.609c2.439,2.994,7.719,4.094,11.266,4.318c1.076,0.174,2.021,0.174,2.633,0.174
		c2.502-6.104,4.752-12.514,6.693-19.23c-1.061,0.111-2.215,0.176-3.324,0.176C477.719,374.789,466.566,373.584,461.014,367.23z"/>
	<path fill="#4D2902" d="M464.594,377.363c3.85,3.348,11.152,4.334,14.939,4.613c0.096,0,0.291,0,0.4,0
		c-0.242-0.055-0.4-0.055-0.4-0.055c-4.027-0.666-8.152-1.797-11.525-4.42c-0.895-0.732-1.811-1.703-2.693-2.545
		c0.367-1.133,0.771-2.207,1.189-3.16c-2.09-1.141-3.887-2.521-5.443-4.197c-0.656-0.715-1.316-1.428-1.846-2.273
		c0.418,5.684,2.92,10.352,5.555,15.328c0-0.113,0.062-0.227,0.062-0.338C464.832,379.154,464.174,378.871,464.594,377.363z"/>
	<path fill="#2F0B00" d="M514.693,187.434c-1.15-1.697-2.328-3.32-3.475-4.861c1.098-0.312,2.17-0.627,3.236-0.861
		c-7.916-17.664-22-31.855-44.996-38.83c-37.889-12.049-80.955-5.176-119.445,10.766c0,0-0.053,0.027-0.131,0.051
		c-1.096,0.445-2.195,0.916-3.293,1.412c-0.025,0.025-0.053,0.025-0.105,0.053c-9.408,4.703-34.805,22.08-40.24,73.977
		l15.678,122.582c0.525,1.436,1.074,2.873,1.543,4.258c8.988,23.963,25.973,42.961,34.961,66.949
		c3.346-0.863,6.404-2.404,9.146-4.471c13.016-9.562,19.652-30.416,22.344-45.285c-4.705,1.516-10.531,0.418-15.025-2.453
		c-10.477-6.771-13.482-23.99-12.752-35.254c0.705-15.756,22.551-30.076,26.547-11.785l1.91-0.443
		c0.287,1.229,0.549,2.43,0.756,3.684c1.832,7.973,3.242,15.994,4.494,24.066c0.367,2.041,0.734,4.131,1.045,6.246
		c1.857-0.418,3.688-0.547,5.49-0.547c4.648,0,9.121,0.834,13.98-0.236l1.254-0.602c0-0.182,0-0.34,0.053-0.521
		c-6.531-15.053-10.715-39.326-9.826-58.195c0.184-4.494,0.68-8.648,1.49-12.359l-0.289-0.104
		c3.242-7.135,5.986-14.869,7.031-22.711c0.521-3.785,0.654-7.551,0.34-11.26c-0.316-3.006-0.889-5.959-1.857-8.887
		c-27.805-4.781-64.543-8.074-85.082-28.639c20.957,7.969,45.889,3.006,66.867,1.986c23.965-1.02,48.947,1.02,71.916-1.986
		c-12.936-2.979-26.967-10.008-36.924-18.996C459.139,192.635,486.889,191.012,514.693,187.434z"/>
	<path fill="#F89A64" d="M427.553,451.074c-5.488,0.594-11.236,0.057-17.299-1.686c-1.336-0.359-2.65-0.832-4.031-1.322
		c-1.428-0.531-2.92-1.172-4.412-1.838c-1.684-0.787-3.434-1.639-5.104-2.584c-4.559-2.537-9.164-5.689-13.896-9.588
		c0.637,6.23,3.074,40.482,3.074,40.482h41.68C427.564,474.539,427.457,455.768,427.553,451.074z"/>
	<path fill="#EFC87E" d="M604.697,95.785h-369.01c-7.18,0-13.016,5.832-13.016,13.014v376.664c0,7.18,5.836,13.016,13.016,13.016
		h369.01c7.184,0,13.016-5.836,13.016-13.016V108.799C617.713,101.617,611.881,95.785,604.697,95.785z M586.309,455.514
		c0,6.051-4.9,10.947-10.949,10.947H265.025c-6.049,0-10.949-4.896-10.949-10.947V138.748c0-6.047,4.9-10.947,10.949-10.947h310.334
		c6.049,0,10.949,4.9,10.949,10.947V455.514z"/>
</g>
</svg>
